<?xml version="1.0" encoding="utf-8"?>
<!-- Generator: Adobe Illustrator 18.0.0, SVG Export Plug-In . SVG Version: 6.00 Build 0)  -->
<!DOCTYPE svg PUBLIC "-//W3C//DTD SVG 1.1//EN" "http://www.w3.org/Graphics/SVG/1.1/DTD/svg11.dtd">
<svg version="1.1" xmlns="http://www.w3.org/2000/svg" xmlns:xlink="http://www.w3.org/1999/xlink" x="0px" y="0px"
	 viewBox="0 0 400 296.8" enable-background="new 0 0 400 296.8" xml:space="preserve">
<g id="Block">
	<rect y="0" fill="#126AB4" width="400" height="297.2"/>
	<rect x="19.7" y="30.3" fill="#DDAE64" width="360.8" height="235.4"/>
	<rect x="19.7" y="110.5" fill="#F58527" width="80.7" height="76.7"/>
	<rect x="300" y="111.1" fill="#F58527" width="80.7" height="76.7"/>
</g>
<g id="Court">
	<g>
		<path fill="none" stroke="#FFFFFF" stroke-width="2" d="M198.6,30.3v235.4 M227.4,149c0,15.9-12.9,28.8-28.8,28.8
			c-15.9,0-28.8-12.9-28.8-28.8c0-15.9,12.9-28.8,28.8-28.8C214.5,120.1,227.4,133,227.4,149L227.4,149z"/>
		<path fill="none" stroke="#FFFFFF" stroke-width="2" stroke-dasharray="12,12,12,12,12,12" d="M326.6,149
			c0,15.9-12.3,28.8-27.5,28.8c-15.2,0-27.5-12.9-27.5-28.8c0-15.9,12.3-28.8,27.5-28.8C314.3,120.1,326.6,133,326.6,149L326.6,149z
			 M127.6,149c0,15.9-12.5,28.8-27.9,28.8c-15.4,0-27.9-12.9-27.9-28.8c0-15.9,12.5-28.8,27.9-28.8C115.1,120.1,127.6,133,127.6,149
			L127.6,149z"/>
		<path fill="none" stroke="#FFFFFF" stroke-width="2" d="M299.1,111.2h80.4V30.3H18.7v80.9h81.1v75.3H18.7v79.2h360.8v-79.2h-80.4
			V111.2L299.1,111.2z M99.7,111.2H18.7v75.3h81.1V111.2L99.7,111.2z M299.1,111.2v75.3h80.4v-75.3H299.1L299.1,111.2z M18.7,50.9
			h39.1c0,0,88.6,10.5,88.6,93.5c0,89.1-88.2,100-88.2,100H18.7 M379.5,50.9h-38.5c0,0-87.3,10.5-87.3,93.5
			c0,89.1,86.9,100,86.9,100h38.9"/>
	</g>
</g>
<g id="Title">
	<g>
		<path fill="#FFFFFF" d="M95.8,12.4H94V12c0-0.4-0.1-0.8-0.3-1.1c-0.2-0.3-0.5-0.5-1-0.5c-0.3,0-0.5,0-0.6,0.1
			c-0.2,0.1-0.3,0.2-0.4,0.4c-0.1,0.2-0.2,0.3-0.2,0.5c0,0.2-0.1,0.4-0.1,0.6c0,0.3,0,0.5,0,0.6s0.1,0.3,0.1,0.5
			c0.1,0.1,0.2,0.2,0.3,0.3c0.1,0.1,0.3,0.2,0.6,0.3l1.4,0.6c0.4,0.2,0.7,0.3,1,0.5c0.3,0.2,0.4,0.5,0.6,0.7c0.1,0.3,0.2,0.6,0.3,1
			s0.1,0.8,0.1,1.3c0,0.5-0.1,1-0.2,1.5s-0.3,0.9-0.5,1.2s-0.6,0.6-1,0.8c-0.4,0.2-0.9,0.3-1.5,0.3c-0.4,0-0.9-0.1-1.2-0.2
			c-0.4-0.2-0.7-0.4-1-0.6s-0.5-0.6-0.7-1c-0.2-0.4-0.2-0.8-0.2-1.2v-0.7h1.8v0.6c0,0.3,0.1,0.6,0.3,0.9c0.2,0.3,0.5,0.4,1,0.4
			c0.3,0,0.6,0,0.7-0.1c0.2-0.1,0.3-0.2,0.4-0.4c0.1-0.2,0.1-0.4,0.2-0.6c0-0.2,0-0.5,0-0.8c0-0.3,0-0.6,0-0.8
			c0-0.2-0.1-0.4-0.2-0.5s-0.2-0.2-0.3-0.3c-0.1-0.1-0.3-0.2-0.5-0.3l-1.3-0.5c-0.8-0.3-1.3-0.8-1.6-1.3c-0.3-0.5-0.4-1.2-0.4-2
			c0-0.5,0.1-0.9,0.2-1.4c0.1-0.4,0.3-0.8,0.6-1.1c0.3-0.3,0.6-0.6,1-0.7s0.9-0.3,1.4-0.3c0.5,0,0.9,0.1,1.3,0.3s0.7,0.4,1,0.7
			s0.5,0.6,0.6,0.9c0.1,0.3,0.2,0.7,0.2,1.1V12.4z"/>
		<path fill="#FFFFFF" d="M98.4,10.5h-2.1V8.7h6.1v1.7h-2.1v11.1h-1.8V10.5z"/>
		<path fill="#FFFFFF" d="M104.2,8.7h1.5l2.9,12.8h-1.8l-0.5-2.8h-2.5l-0.5,2.8h-1.8L104.2,8.7z M104.9,12.4L104.9,12.4l-0.9,4.6
			h1.8L104.9,12.4z"/>
		<path fill="#FFFFFF" d="M109.5,8.7h3c2.2,0,3.2,1.3,3.2,3.8c0,0.7-0.1,1.4-0.4,1.9c-0.2,0.5-0.6,1-1.2,1.3l2,5.9h-1.9l-1.7-5.5
			h-1.1v5.5h-1.8V8.7z M111.3,14.5h1c0.3,0,0.6,0,0.8-0.1c0.2-0.1,0.3-0.2,0.4-0.4s0.2-0.4,0.2-0.6s0.1-0.5,0.1-0.9
			c0-0.3,0-0.6-0.1-0.9s-0.1-0.5-0.2-0.6c-0.1-0.2-0.3-0.3-0.5-0.4s-0.5-0.1-0.8-0.1h-1V14.5z"/>
		<path fill="#FFFFFF" d="M118,10.5h-2.1V8.7h6.1v1.7h-2.1v11.1H118V10.5z"/>
		<path fill="#FFFFFF" d="M122.8,8.7h5.5v1.7h-3.6v3.8h3.2V16h-3.2v3.8h3.6v1.8h-5.5V8.7z"/>
		<path fill="#FFFFFF" d="M129.4,8.7h3c2.2,0,3.2,1.3,3.2,3.8c0,0.7-0.1,1.4-0.4,1.9c-0.2,0.5-0.6,1-1.2,1.3l2,5.9h-1.9l-1.7-5.5
			h-1.1v5.5h-1.8V8.7z M131.3,14.5h1c0.3,0,0.6,0,0.8-0.1c0.2-0.1,0.3-0.2,0.4-0.4s0.2-0.4,0.2-0.6s0.1-0.5,0.1-0.9
			c0-0.3,0-0.6-0.1-0.9s-0.1-0.5-0.2-0.6c-0.1-0.2-0.3-0.3-0.5-0.4s-0.5-0.1-0.8-0.1h-1V14.5z"/>
		<path fill="#FFFFFF" d="M143.1,12.4h-1.8V12c0-0.4-0.1-0.8-0.3-1.1c-0.2-0.3-0.5-0.5-1-0.5c-0.3,0-0.5,0-0.6,0.1
			c-0.2,0.1-0.3,0.2-0.4,0.4c-0.1,0.2-0.2,0.3-0.2,0.5c0,0.2-0.1,0.4-0.1,0.6c0,0.3,0,0.5,0,0.6s0.1,0.3,0.1,0.5
			c0.1,0.1,0.2,0.2,0.3,0.3c0.1,0.1,0.3,0.2,0.6,0.3l1.4,0.6c0.4,0.2,0.7,0.3,1,0.5c0.3,0.2,0.4,0.5,0.6,0.7c0.1,0.3,0.2,0.6,0.3,1
			s0.1,0.8,0.1,1.3c0,0.5-0.1,1-0.2,1.5s-0.3,0.9-0.5,1.2s-0.6,0.6-1,0.8c-0.4,0.2-0.9,0.3-1.5,0.3c-0.4,0-0.9-0.1-1.2-0.2
			c-0.4-0.2-0.7-0.4-1-0.6s-0.5-0.6-0.7-1c-0.2-0.4-0.2-0.8-0.2-1.2v-0.7h1.8v0.6c0,0.3,0.1,0.6,0.3,0.9c0.2,0.3,0.5,0.4,1,0.4
			c0.3,0,0.6,0,0.7-0.1c0.2-0.1,0.3-0.2,0.4-0.4c0.1-0.2,0.1-0.4,0.2-0.6c0-0.2,0-0.5,0-0.8c0-0.3,0-0.6,0-0.8
			c0-0.2-0.1-0.4-0.2-0.5s-0.2-0.2-0.3-0.3c-0.1-0.1-0.3-0.2-0.5-0.3l-1.3-0.5c-0.8-0.3-1.3-0.8-1.6-1.3c-0.3-0.5-0.4-1.2-0.4-2
			c0-0.5,0.1-0.9,0.2-1.4c0.1-0.4,0.3-0.8,0.6-1.1c0.3-0.3,0.6-0.6,1-0.7s0.9-0.3,1.4-0.3c0.5,0,0.9,0.1,1.3,0.3s0.7,0.4,1,0.7
			s0.5,0.6,0.6,0.9c0.1,0.3,0.2,0.7,0.2,1.1V12.4z"/>
		<path fill="#FFFFFF" d="M147.8,8.7h1.8v12.8h-1.8V8.7z"/>
		<path fill="#FFFFFF" d="M151.4,8.7h1.8l2.8,7.7h0V8.7h1.8v12.8H156l-2.8-7.7h0v7.7h-1.8V8.7z"/>
		<path fill="#FFFFFF" d="M164,10.5h-2.1V8.7h6.1v1.7h-2.1v11.1H164V10.5z"/>
		<path fill="#FFFFFF" d="M168.8,8.7h1.8v5.5h2.3V8.7h1.8v12.8h-1.8v-5.7h-2.3v5.7h-1.8V8.7z"/>
		<path fill="#FFFFFF" d="M176.4,8.7h5.5v1.7h-3.6v3.8h3.2V16h-3.2v3.8h3.6v1.8h-5.5V8.7z"/>
		<path fill="#FFFFFF" d="M186.2,19.8l3.3-6.2c0.2-0.3,0.3-0.6,0.3-0.8s0-0.5,0-0.9c0-0.2,0-0.3,0-0.5c0-0.2,0-0.3-0.1-0.5
			c-0.1-0.1-0.1-0.2-0.3-0.3c-0.1-0.1-0.3-0.1-0.5-0.1c-0.3,0-0.5,0.1-0.7,0.2c-0.2,0.2-0.2,0.4-0.2,0.7v1h-1.8v-1
			c0-0.4,0.1-0.7,0.2-1.1s0.3-0.6,0.6-0.9c0.2-0.3,0.5-0.5,0.9-0.6c0.3-0.1,0.7-0.2,1.1-0.2c0.5,0,0.9,0.1,1.2,0.3
			c0.3,0.2,0.6,0.4,0.8,0.7c0.2,0.3,0.4,0.6,0.5,1c0.1,0.4,0.2,0.8,0.2,1.2c0,0.3,0,0.6,0,0.8c0,0.2,0,0.4-0.1,0.6
			c0,0.2-0.1,0.4-0.2,0.6c-0.1,0.2-0.2,0.4-0.3,0.7l-2.7,5.2h3.3v1.8h-5.5V19.8z"/>
		<path fill="#FFFFFF" d="M192.9,11.4c0-0.4,0.1-0.8,0.2-1.2s0.4-0.6,0.6-0.9c0.3-0.2,0.5-0.4,0.9-0.5s0.7-0.2,1-0.2
			c0.4,0,0.7,0.1,1,0.2s0.6,0.3,0.9,0.5c0.3,0.2,0.5,0.5,0.6,0.9s0.2,0.7,0.2,1.2v7.5c0,0.4-0.1,0.8-0.2,1.2
			c-0.1,0.3-0.4,0.6-0.6,0.9s-0.5,0.4-0.9,0.5s-0.7,0.2-1,0.2c-0.4,0-0.7-0.1-1-0.2s-0.6-0.3-0.9-0.5s-0.5-0.5-0.6-0.9
			c-0.1-0.3-0.2-0.7-0.2-1.2V11.4z M194.7,18.9c0,0.3,0.1,0.5,0.3,0.7c0.2,0.2,0.4,0.3,0.6,0.3c0.3,0,0.5-0.1,0.6-0.3
			c0.2-0.2,0.3-0.4,0.3-0.7v-7.5c0-0.3-0.1-0.5-0.3-0.7c-0.2-0.2-0.4-0.3-0.6-0.3c-0.3,0-0.5,0.1-0.6,0.3c-0.2,0.2-0.3,0.4-0.3,0.7
			V18.9z"/>
		<path fill="#FFFFFF" d="M201.8,10.7l-1.8,1.4v-1.9l1.8-1.4h1.8v12.8h-1.8V10.7z"/>
		<path fill="#FFFFFF" d="M211.7,10.5h-3.6v3.5c0.2-0.2,0.4-0.3,0.6-0.4c0.3-0.1,0.6-0.2,0.9-0.2c0.6,0,1.1,0.2,1.5,0.6
			c0.4,0.4,0.6,0.9,0.6,1.7v3.3c0,0.4-0.1,0.8-0.2,1.2c-0.2,0.3-0.4,0.6-0.6,0.9s-0.5,0.4-0.9,0.5s-0.7,0.2-1,0.2
			c-0.4,0-0.7-0.1-1-0.2s-0.6-0.3-0.9-0.5s-0.5-0.5-0.6-0.9c-0.1-0.3-0.2-0.7-0.2-1.2v-0.5h1.8v0.5c0,0.3,0.1,0.6,0.3,0.7
			s0.4,0.3,0.7,0.3c0.3,0,0.5-0.1,0.6-0.3c0.1-0.2,0.2-0.4,0.2-0.7v-3c0-0.3-0.1-0.5-0.2-0.6S209.3,15,209,15c-0.2,0-0.3,0-0.4,0.1
			c-0.1,0.1-0.2,0.1-0.3,0.2c-0.1,0.1-0.1,0.1-0.2,0.2s-0.1,0.2-0.1,0.2h-1.6V8.7h5.3V10.5z"/>
		<path fill="#FFFFFF" d="M218.6,8.7h1.5l2.9,12.8h-1.8l-0.5-2.8h-2.5l-0.5,2.8h-1.8L218.6,8.7z M219.4,12.4L219.4,12.4l-0.9,4.6
			h1.8L219.4,12.4z"/>
		<path fill="#FFFFFF" d="M223.9,8.7h1.8v11h3.6v1.8h-5.5V8.7z"/>
		<path fill="#FFFFFF" d="M230.5,8.7h1.8v11h3.6v1.8h-5.5V8.7z"/>
		<path fill="#FFFFFF" d="M237.1,15.7h5.4v1.8h-5.4V15.7z"/>
		<path fill="#FFFFFF" d="M250.2,12.4h-1.8V12c0-0.4-0.1-0.8-0.3-1.1c-0.2-0.3-0.5-0.5-1-0.5c-0.3,0-0.5,0-0.6,0.1s-0.3,0.2-0.4,0.4
			c-0.1,0.2-0.2,0.3-0.2,0.5c0,0.2-0.1,0.4-0.1,0.6c0,0.3,0,0.5,0,0.6s0.1,0.3,0.1,0.5c0.1,0.1,0.2,0.2,0.3,0.3
			c0.1,0.1,0.3,0.2,0.6,0.3l1.4,0.6c0.4,0.2,0.7,0.3,1,0.5c0.3,0.2,0.4,0.5,0.6,0.7c0.1,0.3,0.2,0.6,0.3,1c0,0.4,0.1,0.8,0.1,1.3
			c0,0.5-0.1,1-0.2,1.5c-0.1,0.5-0.3,0.9-0.5,1.2c-0.2,0.3-0.6,0.6-1,0.8c-0.4,0.2-0.9,0.3-1.5,0.3c-0.4,0-0.9-0.1-1.2-0.2
			c-0.4-0.2-0.7-0.4-1-0.6c-0.3-0.3-0.5-0.6-0.7-1c-0.2-0.4-0.2-0.8-0.2-1.2v-0.7h1.8v0.6c0,0.3,0.1,0.6,0.3,0.9
			c0.2,0.3,0.5,0.4,1,0.4c0.3,0,0.6,0,0.7-0.1c0.2-0.1,0.3-0.2,0.4-0.4c0.1-0.2,0.1-0.4,0.2-0.6c0-0.2,0-0.5,0-0.8
			c0-0.3,0-0.6,0-0.8c0-0.2-0.1-0.4-0.2-0.5c-0.1-0.1-0.2-0.2-0.3-0.3s-0.3-0.2-0.5-0.3l-1.3-0.5c-0.8-0.3-1.3-0.8-1.6-1.3
			c-0.3-0.5-0.4-1.2-0.4-2c0-0.5,0.1-0.9,0.2-1.4c0.1-0.4,0.3-0.8,0.6-1.1s0.6-0.6,1-0.7c0.4-0.2,0.9-0.3,1.4-0.3
			c0.5,0,0.9,0.1,1.3,0.3s0.7,0.4,1,0.7c0.3,0.3,0.5,0.6,0.6,0.9c0.1,0.3,0.2,0.7,0.2,1.1V12.4z"/>
		<path fill="#FFFFFF" d="M252.7,10.5h-2.1V8.7h6.1v1.7h-2.1v11.1h-1.8V10.5z"/>
		<path fill="#FFFFFF" d="M258.5,8.7h1.5l2.9,12.8h-1.8l-0.5-2.8h-2.5l-0.5,2.8h-1.8L258.5,8.7z M259.3,12.4L259.3,12.4l-0.9,4.6
			h1.8L259.3,12.4z"/>
		<path fill="#FFFFFF" d="M263.8,8.7h3c2.2,0,3.2,1.3,3.2,3.8c0,0.7-0.1,1.4-0.4,1.9c-0.2,0.5-0.6,1-1.2,1.3l2,5.9h-1.9l-1.7-5.5
			h-1.1v5.5h-1.8V8.7z M265.7,14.5h1c0.3,0,0.6,0,0.8-0.1c0.2-0.1,0.3-0.2,0.4-0.4c0.1-0.2,0.2-0.4,0.2-0.6s0.1-0.5,0.1-0.9
			c0-0.3,0-0.6-0.1-0.9s-0.1-0.5-0.2-0.6c-0.1-0.2-0.3-0.3-0.5-0.4s-0.5-0.1-0.8-0.1h-1V14.5z"/>
		<path fill="#FFFFFF" d="M274.7,11.8c0-0.5,0.1-1,0.3-1.4c0.2-0.4,0.4-0.7,0.7-1c0.3-0.3,0.6-0.5,1-0.6c0.4-0.1,0.7-0.2,1.1-0.2
			s0.7,0.1,1.1,0.2c0.4,0.1,0.7,0.3,1,0.6c0.3,0.3,0.5,0.6,0.7,1c0.2,0.4,0.3,0.9,0.3,1.4v0.6h-1.8v-0.6c0-0.4-0.1-0.8-0.4-1
			s-0.5-0.3-0.9-0.3s-0.6,0.1-0.9,0.3s-0.4,0.5-0.4,1v6.8c0,0.4,0.1,0.8,0.4,1s0.5,0.3,0.9,0.3s0.6-0.1,0.9-0.3s0.4-0.5,0.4-1v-2.4
			h-1.5v-1.6h3.3v4c0,0.5-0.1,1-0.3,1.4c-0.2,0.4-0.4,0.7-0.7,1c-0.3,0.3-0.6,0.5-1,0.6c-0.4,0.1-0.7,0.2-1.1,0.2s-0.7-0.1-1.1-0.2
			s-0.7-0.3-1-0.6c-0.3-0.3-0.5-0.6-0.7-1c-0.2-0.4-0.3-0.8-0.3-1.4V11.8z"/>
		<path fill="#FFFFFF" d="M284.5,8.7h1.5l2.9,12.8h-1.8l-0.5-2.8h-2.5l-0.5,2.8h-1.8L284.5,8.7z M285.3,12.4L285.3,12.4l-0.9,4.6
			h1.8L285.3,12.4z"/>
		<path fill="#FFFFFF" d="M289.8,8.7h1.8l2.4,6.8h0l2.3-6.8h1.8v12.8h-1.8v-7.8h0l-1.8,5.5h-0.9l-1.8-5.5h0v7.8h-1.8V8.7z"/>
		<path fill="#FFFFFF" d="M299.8,8.7h5.5v1.7h-3.6v3.8h3.2V16h-3.2v3.8h3.6v1.8h-5.5V8.7z"/>
	</g>
	<g>
		<path fill="#FFFFFF" d="M2.8,187.2v-1.6l6.9-2.5v0H2.8v-1.6h11.4v1.5l-6.8,2.5v0h6.8v1.6H2.8z"/>
		<path fill="#FFFFFF" d="M2.8,180v-4.9h1.5v3.2h3.3v-2.8h1.5v2.8h3.3v-3.2h1.6v4.9H2.8z"/>
		<path fill="#FFFFFF" d="M14.2,167.3v1.5l-7.4,1.2v0l7.4,1.2v1.5l-11.4,1.7v-1.7l7.2-0.8v0l-7.2-1.3v-1.2l7.4-1.3v0l-7.4-0.8v-1.7
			L14.2,167.3z"/>
		<path fill="#FFFFFF" d="M9.4,160.1l-6.6,2.2v-1.7l4.5-1.3v0L2.8,158v-1.7l6.6,2.2h4.8v1.6H9.4z"/>
		<path fill="#FFFFFF" d="M5.5,155.5c-0.5,0-0.9-0.1-1.2-0.2c-0.4-0.2-0.6-0.4-0.9-0.6s-0.4-0.6-0.5-0.9c-0.1-0.3-0.2-0.7-0.2-1
			c0-0.3,0.1-0.7,0.2-1c0.1-0.3,0.3-0.6,0.5-0.9c0.2-0.3,0.5-0.5,0.9-0.6c0.4-0.2,0.8-0.2,1.2-0.2h6c0.5,0,0.9,0.1,1.2,0.2
			c0.3,0.2,0.6,0.4,0.9,0.6c0.2,0.3,0.4,0.6,0.5,0.9c0.1,0.3,0.2,0.7,0.2,1c0,0.3-0.1,0.7-0.2,1s-0.3,0.6-0.5,0.9
			c-0.2,0.3-0.5,0.5-0.9,0.6c-0.3,0.2-0.8,0.2-1.2,0.2H5.5z M11.5,153.9c0.4,0,0.7-0.1,0.9-0.3s0.3-0.5,0.3-0.8
			c0-0.3-0.1-0.6-0.3-0.8c-0.2-0.2-0.5-0.3-0.9-0.3h-6c-0.4,0-0.7,0.1-0.9,0.3c-0.2,0.2-0.3,0.5-0.3,0.8c0,0.3,0.1,0.6,0.3,0.8
			c0.2,0.2,0.5,0.3,0.9,0.3H11.5z"/>
		<path fill="#FFFFFF" d="M2.8,148.6V146c0-1.9,1.1-2.9,3.3-2.9c0.7,0,1.2,0.1,1.7,0.3c0.5,0.2,0.9,0.6,1.1,1.1l5.2-1.8v1.7L9.4,146
			v1h4.9v1.6H2.8z M7.9,147v-0.9c0-0.3,0-0.5-0.1-0.7c-0.1-0.2-0.2-0.3-0.3-0.4c-0.1-0.1-0.3-0.2-0.6-0.2c-0.2,0-0.5,0-0.8,0
			s-0.5,0-0.8,0c-0.2,0-0.4,0.1-0.6,0.2s-0.3,0.2-0.3,0.4c-0.1,0.2-0.1,0.4-0.1,0.7v0.8H7.9z"/>
		<path fill="#FFFFFF" d="M2.8,141.8v-1.6H8v0l-5.2-2.4v-1.6l4.6,2.2l6.8-2.6v1.7l-5.1,1.9l1.6,0.9h3.4v1.6H2.8z"/>
		<path fill="#FFFFFF" d="M12.7,132.2l-5.6-2.9c-0.3-0.2-0.5-0.2-0.7-0.3c-0.2,0-0.5,0-0.8,0c-0.1,0-0.3,0-0.4,0
			c-0.2,0-0.3,0-0.4,0.1c-0.1,0-0.2,0.1-0.3,0.2c-0.1,0.1-0.1,0.3-0.1,0.5c0,0.2,0.1,0.4,0.2,0.6c0.1,0.1,0.3,0.2,0.6,0.2h0.9v1.6
			H5.2c-0.3,0-0.7-0.1-1-0.2c-0.3-0.1-0.6-0.3-0.8-0.5s-0.4-0.5-0.5-0.8c-0.1-0.3-0.2-0.6-0.2-1c0-0.4,0.1-0.8,0.2-1.1
			s0.4-0.6,0.6-0.8c0.3-0.2,0.6-0.3,0.9-0.4c0.3-0.1,0.7-0.1,1.1-0.1c0.3,0,0.5,0,0.7,0c0.2,0,0.4,0,0.5,0.1c0.2,0,0.3,0.1,0.5,0.2
			s0.4,0.2,0.6,0.3l4.6,2.4v-2.9h1.6v4.9H12.7z"/>
		<path fill="#FFFFFF" d="M5.2,126.3c-0.4,0-0.7-0.1-1-0.2c-0.3-0.1-0.6-0.3-0.8-0.5c-0.2-0.2-0.4-0.5-0.5-0.8
			c-0.1-0.3-0.2-0.6-0.2-0.9c0-0.3,0.1-0.6,0.2-0.9c0.1-0.3,0.3-0.6,0.5-0.8c0.2-0.2,0.5-0.4,0.8-0.5c0.3-0.1,0.6-0.2,1-0.2h6.7
			c0.4,0,0.7,0.1,1,0.2c0.3,0.1,0.6,0.3,0.8,0.5c0.2,0.2,0.4,0.5,0.5,0.8c0.1,0.3,0.2,0.6,0.2,0.9c0,0.3-0.1,0.6-0.2,0.9
			c-0.1,0.3-0.3,0.6-0.5,0.8c-0.2,0.2-0.5,0.4-0.8,0.5c-0.3,0.1-0.6,0.2-1,0.2H5.2z M11.9,124.7c0.2,0,0.4-0.1,0.6-0.2
			c0.2-0.1,0.2-0.3,0.2-0.6c0-0.2-0.1-0.4-0.2-0.6c-0.2-0.1-0.3-0.2-0.6-0.2H5.2c-0.2,0-0.4,0.1-0.6,0.2c-0.2,0.1-0.2,0.3-0.2,0.6
			c0,0.2,0.1,0.4,0.2,0.6c0.2,0.1,0.3,0.2,0.6,0.2H11.9z"/>
		<path fill="#FFFFFF" d="M4.6,118.4l1.2,1.6H4l-1.2-1.6v-1.6h11.4v1.6H4.6z"/>
		<path fill="#FFFFFF" d="M4.4,109.5v3.2h3.1c-0.1-0.1-0.3-0.3-0.4-0.6c-0.1-0.2-0.2-0.5-0.2-0.8c0-0.6,0.2-1,0.5-1.4
			c0.3-0.3,0.8-0.5,1.5-0.5h2.9c0.4,0,0.7,0.1,1,0.2c0.3,0.1,0.6,0.3,0.8,0.5c0.2,0.2,0.4,0.5,0.5,0.8c0.1,0.3,0.2,0.6,0.2,0.9
			c0,0.3-0.1,0.6-0.2,0.9c-0.1,0.3-0.3,0.6-0.5,0.8c-0.2,0.2-0.5,0.4-0.8,0.5c-0.3,0.1-0.6,0.2-1,0.2h-0.5v-1.6h0.4
			c0.3,0,0.5-0.1,0.6-0.2c0.2-0.2,0.2-0.4,0.2-0.6c0-0.2-0.1-0.4-0.2-0.6c-0.1-0.1-0.4-0.2-0.6-0.2H9.2c-0.2,0-0.4,0.1-0.6,0.2
			c-0.2,0.1-0.2,0.3-0.2,0.6c0,0.1,0,0.3,0.1,0.4c0,0.1,0.1,0.2,0.2,0.2s0.1,0.1,0.2,0.2c0.1,0,0.1,0.1,0.2,0.1v1.4H2.8v-4.7H4.4z"
			/>
	</g>
	<g>
		<path fill="#FFFFFF" d="M394.6,111.3v1.6l-6.9,2.5v0h6.9v1.6h-11.4v-1.5l6.8-2.5v0h-6.8v-1.6H394.6z"/>
		<path fill="#FFFFFF" d="M394.6,118.5v4.9h-1.5v-3.2h-3.3v2.8h-1.5v-2.8h-3.3v3.2h-1.6v-4.9H394.6z"/>
		<path fill="#FFFFFF" d="M383.2,131.2v-1.5l7.4-1.2v0l-7.4-1.2v-1.5l11.4-1.7v1.7l-7.2,0.8v0l7.2,1.3v1.2l-7.4,1.3v0l7.4,0.8v1.7
			L383.2,131.2z"/>
		<path fill="#FFFFFF" d="M388,138.4l6.6-2.2v1.7l-4.5,1.3v0l4.5,1.3v1.7l-6.6-2.2h-4.8v-1.6H388z"/>
		<path fill="#FFFFFF" d="M391.9,143c0.5,0,0.9,0.1,1.2,0.2c0.4,0.2,0.6,0.4,0.9,0.6c0.2,0.3,0.4,0.6,0.5,0.9c0.1,0.3,0.2,0.7,0.2,1
			c0,0.3-0.1,0.7-0.2,1c-0.1,0.3-0.3,0.6-0.5,0.9c-0.2,0.3-0.5,0.5-0.9,0.6c-0.4,0.2-0.8,0.2-1.2,0.2h-6c-0.5,0-0.9-0.1-1.2-0.2
			c-0.3-0.2-0.6-0.4-0.9-0.6c-0.2-0.3-0.4-0.6-0.5-0.9c-0.1-0.3-0.2-0.7-0.2-1c0-0.3,0.1-0.7,0.2-1s0.3-0.6,0.5-0.9
			c0.2-0.3,0.5-0.5,0.9-0.6c0.3-0.2,0.8-0.2,1.2-0.2H391.9z M385.9,144.6c-0.4,0-0.7,0.1-0.9,0.3s-0.3,0.5-0.3,0.8s0.1,0.6,0.3,0.8
			c0.2,0.2,0.5,0.3,0.9,0.3h6c0.4,0,0.7-0.1,0.9-0.3c0.2-0.2,0.3-0.5,0.3-0.8s-0.1-0.6-0.3-0.8c-0.2-0.2-0.5-0.3-0.9-0.3H385.9z"/>
		<path fill="#FFFFFF" d="M394.6,149.9v2.6c0,1.9-1.1,2.9-3.3,2.9c-0.7,0-1.2-0.1-1.7-0.3s-0.9-0.6-1.1-1.1l-5.2,1.8v-1.7l4.9-1.5
			v-1h-4.9v-1.6H394.6z M389.5,151.6v0.9c0,0.3,0,0.5,0.1,0.7s0.2,0.3,0.3,0.4c0.1,0.1,0.3,0.2,0.6,0.2s0.5,0,0.8,0
			c0.3,0,0.5,0,0.8,0s0.4-0.1,0.6-0.2s0.3-0.2,0.3-0.4c0.1-0.2,0.1-0.4,0.1-0.7v-0.8H389.5z"/>
		<path fill="#FFFFFF" d="M394.6,156.7v1.6h-5.2v0l5.2,2.4v1.6l-4.6-2.2l-6.8,2.6v-1.7l5.1-1.9l-1.6-0.9h-3.4v-1.6H394.6z"/>
		<path fill="#FFFFFF" d="M384.7,166.3l5.6,2.9c0.3,0.1,0.5,0.2,0.7,0.3s0.5,0,0.8,0c0.1,0,0.3,0,0.4,0s0.3,0,0.4-0.1
			c0.1,0,0.2-0.1,0.3-0.2c0.1-0.1,0.1-0.3,0.1-0.5c0-0.2-0.1-0.4-0.2-0.6c-0.1-0.1-0.3-0.2-0.6-0.2h-0.9v-1.6h0.9
			c0.3,0,0.7,0.1,1,0.2c0.3,0.1,0.6,0.3,0.8,0.5c0.2,0.2,0.4,0.5,0.5,0.8c0.1,0.3,0.2,0.6,0.2,1c0,0.4-0.1,0.8-0.2,1.1
			c-0.2,0.3-0.4,0.6-0.6,0.8c-0.3,0.2-0.6,0.3-0.9,0.4c-0.3,0.1-0.7,0.1-1.1,0.1c-0.3,0-0.5,0-0.7,0c-0.2,0-0.4,0-0.5-0.1
			s-0.3-0.1-0.5-0.2c-0.2-0.1-0.4-0.2-0.6-0.3l-4.6-2.4v2.9h-1.6v-4.9H384.7z"/>
		<path fill="#FFFFFF" d="M392.2,172.3c0.4,0,0.7,0.1,1,0.2c0.3,0.1,0.6,0.3,0.8,0.5c0.2,0.2,0.4,0.5,0.5,0.8
			c0.1,0.3,0.2,0.6,0.2,0.9c0,0.3-0.1,0.6-0.2,0.9c-0.1,0.3-0.3,0.6-0.5,0.8c-0.2,0.2-0.5,0.4-0.8,0.5c-0.3,0.1-0.6,0.2-1,0.2h-6.7
			c-0.4,0-0.7-0.1-1-0.2c-0.3-0.1-0.6-0.3-0.8-0.5c-0.2-0.2-0.4-0.5-0.5-0.8c-0.1-0.3-0.2-0.6-0.2-0.9c0-0.3,0.1-0.6,0.2-0.9
			c0.1-0.3,0.3-0.6,0.5-0.8s0.5-0.4,0.8-0.5c0.3-0.1,0.6-0.2,1-0.2H392.2z M385.6,173.9c-0.2,0-0.4,0.1-0.6,0.2s-0.2,0.3-0.2,0.6
			c0,0.2,0.1,0.4,0.2,0.6s0.3,0.2,0.6,0.2h6.7c0.2,0,0.4-0.1,0.6-0.2s0.2-0.3,0.2-0.6c0-0.2-0.1-0.4-0.2-0.6s-0.3-0.2-0.6-0.2H385.6
			z"/>
		<path fill="#FFFFFF" d="M392.9,180.1l-1.2-1.6h1.7l1.2,1.6v1.6h-11.4v-1.6H392.9z"/>
		<path fill="#FFFFFF" d="M393.1,189v-3.2H390c0.1,0.1,0.3,0.3,0.4,0.6c0.1,0.2,0.2,0.5,0.2,0.8c0,0.6-0.2,1-0.5,1.4
			c-0.3,0.3-0.8,0.5-1.5,0.5h-2.9c-0.4,0-0.7-0.1-1-0.2c-0.3-0.1-0.6-0.3-0.8-0.5c-0.2-0.2-0.4-0.5-0.5-0.8
			c-0.1-0.3-0.2-0.6-0.2-0.9c0-0.3,0.1-0.6,0.2-0.9c0.1-0.3,0.3-0.6,0.5-0.8s0.5-0.4,0.8-0.5c0.3-0.1,0.6-0.2,1-0.2h0.5v1.6h-0.4
			c-0.3,0-0.5,0.1-0.6,0.2s-0.2,0.4-0.2,0.6c0,0.2,0.1,0.4,0.2,0.6c0.1,0.1,0.4,0.2,0.6,0.2h2.7c0.2,0,0.4-0.1,0.6-0.2
			c0.2-0.1,0.2-0.3,0.2-0.6c0-0.1,0-0.3-0.1-0.4c0-0.1-0.1-0.2-0.2-0.2c-0.1-0.1-0.1-0.1-0.2-0.2c-0.1,0-0.1-0.1-0.2-0.1v-1.4h6.1
			v4.7H393.1z"/>
	</g>
</g>
<g id="Eastern">
	<g id="LeBron">
		<g>
			<path fill="#E86F30" d="M131.5,111.1h1.4v8.5h2.8v1.4h-4.3V111.1z"/>
			<path fill="#E86F30" d="M137.9,118.1v1c0,0.2,0.1,0.4,0.2,0.5s0.3,0.2,0.5,0.2c0.3,0,0.5-0.1,0.5-0.2s0.1-0.3,0.2-0.5h1.4
				c0,0.3,0,0.6-0.1,0.8c-0.1,0.3-0.2,0.5-0.4,0.7c-0.2,0.2-0.4,0.4-0.7,0.5c-0.3,0.1-0.6,0.2-0.9,0.2c-0.4,0-0.8-0.1-1.1-0.3
				c-0.3-0.2-0.6-0.4-0.7-0.7c-0.1-0.2-0.2-0.4-0.2-0.6c0-0.2-0.1-0.5-0.1-0.8v-2.3c0-0.3,0-0.6,0.1-0.8c0-0.2,0.1-0.5,0.2-0.6
				c0.2-0.3,0.4-0.6,0.7-0.7c0.3-0.2,0.7-0.3,1.1-0.3c0.3,0,0.6,0.1,0.9,0.2c0.3,0.1,0.5,0.3,0.7,0.5c0.2,0.2,0.3,0.4,0.4,0.7
				c0.1,0.3,0.1,0.6,0.1,0.9v2H137.9z M137.9,117h1.4v-0.8c0-0.3-0.1-0.5-0.2-0.6s-0.3-0.2-0.5-0.2s-0.4,0.1-0.5,0.2
				s-0.2,0.3-0.2,0.6V117z"/>
			<path fill="#E86F30" d="M141.9,111.1h2.1c0.5,0,0.8,0.1,1.2,0.2c0.3,0.1,0.6,0.3,0.8,0.6c0.2,0.2,0.4,0.5,0.4,0.8
				c0.1,0.3,0.1,0.6,0.1,0.9v0.4c0,0.3,0,0.5-0.1,0.7s-0.1,0.4-0.2,0.5c-0.1,0.1-0.2,0.3-0.3,0.4c-0.1,0.1-0.3,0.2-0.4,0.3
				c0.3,0.2,0.6,0.4,0.7,0.7c0.2,0.3,0.2,0.7,0.2,1.3v0.6c0,0.9-0.2,1.5-0.6,2c-0.4,0.5-1.1,0.7-2,0.7h-1.9V111.1z M143.3,115.2h0.6
				c0.5,0,0.8-0.1,1-0.4c0.2-0.2,0.2-0.6,0.2-1c0-0.4-0.1-0.8-0.3-1c-0.2-0.2-0.5-0.3-1-0.3h-0.6V115.2z M143.3,119.7h0.6
				c0.3,0,0.5,0,0.7-0.1c0.2-0.1,0.3-0.2,0.4-0.3s0.1-0.3,0.2-0.5c0-0.2,0-0.4,0-0.7c0-0.3,0-0.5,0-0.7c0-0.2-0.1-0.3-0.2-0.5
				s-0.2-0.2-0.4-0.3s-0.4-0.1-0.6-0.1h-0.6V119.7z"/>
			<path fill="#E86F30" d="M147.8,114h1.4v0.8c0.3-0.3,0.6-0.5,0.9-0.6c0.3-0.1,0.6-0.2,1-0.2v1.5c-0.1-0.1-0.3-0.1-0.4-0.1
				c-0.1,0-0.3,0-0.5,0.1c-0.2,0.1-0.3,0.1-0.5,0.3c-0.1,0.1-0.3,0.3-0.4,0.5c-0.1,0.2-0.1,0.4-0.1,0.7v4.2h-1.4V114z"/>
			<path fill="#E86F30" d="M151.5,116.4c0-0.3,0-0.6,0.1-0.8c0-0.2,0.1-0.5,0.2-0.6c0.2-0.3,0.4-0.6,0.7-0.7
				c0.3-0.2,0.7-0.3,1.1-0.3c0.4,0,0.8,0.1,1.1,0.3c0.3,0.2,0.6,0.4,0.7,0.7c0.1,0.2,0.2,0.4,0.2,0.6c0,0.2,0.1,0.5,0.1,0.8v2.3
				c0,0.3,0,0.6-0.1,0.8c0,0.2-0.1,0.5-0.2,0.6c-0.2,0.3-0.4,0.6-0.7,0.7c-0.3,0.2-0.7,0.3-1.1,0.3c-0.4,0-0.8-0.1-1.1-0.3
				c-0.3-0.2-0.6-0.4-0.7-0.7c-0.1-0.2-0.2-0.4-0.2-0.6c0-0.2-0.1-0.5-0.1-0.8V116.4z M152.9,118.9c0,0.3,0.1,0.5,0.2,0.6
				s0.3,0.2,0.5,0.2s0.4-0.1,0.5-0.2s0.2-0.3,0.2-0.6v-2.8c0-0.3-0.1-0.5-0.2-0.6s-0.3-0.2-0.5-0.2s-0.4,0.1-0.5,0.2
				s-0.2,0.3-0.2,0.6V118.9z"/>
			<path fill="#E86F30" d="M156.8,114h1.4v0.7h0c0.1-0.2,0.3-0.4,0.5-0.6s0.5-0.2,0.8-0.2c0.2,0,0.4,0,0.5,0.1s0.3,0.2,0.5,0.3
				s0.3,0.3,0.3,0.5s0.1,0.5,0.1,0.8v5.4h-1.4v-4.9c0-0.3-0.1-0.5-0.2-0.6c-0.1-0.1-0.3-0.2-0.5-0.2c-0.3,0-0.5,0.1-0.6,0.3
				s-0.2,0.4-0.2,0.7v4.8h-1.4V114z"/>
			<path fill="#E86F30" d="M168.2,118.7c0,0.3-0.1,0.6-0.2,0.9c-0.1,0.3-0.3,0.6-0.5,0.8s-0.5,0.4-0.8,0.5c-0.3,0.1-0.6,0.2-1,0.2
				c-0.5,0-0.8-0.1-1.1-0.3c-0.3-0.2-0.5-0.4-0.7-0.6l1.1-0.9c0.1,0.1,0.2,0.2,0.4,0.3c0.1,0.1,0.3,0.1,0.4,0.1c0.1,0,0.2,0,0.3,0
				c0.1,0,0.2-0.1,0.3-0.2c0.1-0.1,0.2-0.2,0.3-0.4s0.1-0.4,0.1-0.6v-7.4h1.4V118.7z"/>
			<path fill="#E86F30" d="M172.1,120.4L172.1,120.4c-0.2,0.3-0.4,0.5-0.6,0.6s-0.5,0.2-0.8,0.2c-0.2,0-0.3,0-0.5-0.1
				c-0.2-0.1-0.3-0.1-0.5-0.3s-0.3-0.3-0.4-0.6c-0.1-0.2-0.1-0.6-0.1-1c0-0.4,0-0.8,0.1-1.1c0.1-0.3,0.2-0.6,0.4-0.8
				c0.2-0.2,0.4-0.4,0.7-0.4c0.3-0.1,0.7-0.1,1.1-0.1c0.1,0,0.2,0,0.3,0c0.1,0,0.2,0,0.4,0v-0.7c0-0.2-0.1-0.4-0.2-0.6
				c-0.1-0.2-0.3-0.2-0.6-0.2c-0.2,0-0.4,0.1-0.5,0.2c-0.2,0.1-0.3,0.3-0.3,0.5h-1.4c0-0.6,0.3-1.2,0.6-1.5c0.2-0.2,0.4-0.3,0.7-0.4
				s0.6-0.2,0.9-0.2c0.3,0,0.6,0,0.8,0.1s0.5,0.2,0.7,0.4c0.2,0.2,0.3,0.4,0.5,0.7c0.1,0.3,0.2,0.6,0.2,1v4.9h-1.4V120.4z
				 M172.1,118c-0.2,0-0.3,0-0.4,0c-0.3,0-0.6,0.1-0.8,0.2s-0.3,0.4-0.3,0.8c0,0.3,0.1,0.5,0.2,0.7c0.1,0.2,0.3,0.3,0.5,0.3
				c0.2,0,0.4-0.1,0.6-0.2s0.2-0.4,0.2-0.7V118z"/>
			<path fill="#E86F30" d="M174.6,114h1.4v0.7h0c0.1-0.2,0.3-0.4,0.5-0.6s0.5-0.2,0.8-0.2c0.3,0,0.6,0.1,0.8,0.2
				c0.2,0.1,0.4,0.3,0.5,0.5c0.2-0.2,0.4-0.4,0.6-0.5c0.2-0.1,0.5-0.2,0.9-0.2c0.2,0,0.4,0,0.5,0.1s0.4,0.2,0.5,0.3s0.3,0.3,0.4,0.5
				s0.1,0.5,0.1,0.8v5.4h-1.4v-4.9c0-0.3-0.1-0.5-0.2-0.6c-0.1-0.1-0.3-0.2-0.5-0.2c-0.3,0-0.5,0.1-0.6,0.3
				c-0.1,0.2-0.2,0.4-0.2,0.7v4.8h-1.4v-4.9c0-0.3-0.1-0.5-0.2-0.6c-0.1-0.1-0.3-0.2-0.5-0.2c-0.3,0-0.5,0.1-0.6,0.3
				s-0.2,0.4-0.2,0.7v4.8h-1.4V114z"/>
			<path fill="#E86F30" d="M184.2,118.1v1c0,0.2,0.1,0.4,0.2,0.5s0.3,0.2,0.5,0.2c0.3,0,0.5-0.1,0.5-0.2s0.1-0.3,0.2-0.5h1.4
				c0,0.3,0,0.6-0.1,0.8c-0.1,0.3-0.2,0.5-0.4,0.7c-0.2,0.2-0.4,0.4-0.7,0.5c-0.3,0.1-0.6,0.2-0.9,0.2c-0.4,0-0.8-0.1-1.1-0.3
				c-0.3-0.2-0.6-0.4-0.7-0.7c-0.1-0.2-0.2-0.4-0.2-0.6c0-0.2-0.1-0.5-0.1-0.8v-2.3c0-0.3,0-0.6,0.1-0.8c0-0.2,0.1-0.5,0.2-0.6
				c0.2-0.3,0.4-0.6,0.7-0.7c0.3-0.2,0.7-0.3,1.1-0.3c0.3,0,0.6,0.1,0.9,0.2c0.3,0.1,0.5,0.3,0.7,0.5c0.2,0.2,0.3,0.4,0.4,0.7
				c0.1,0.3,0.1,0.6,0.1,0.9v2H184.2z M184.2,117h1.4v-0.8c0-0.3-0.1-0.5-0.2-0.6s-0.3-0.2-0.5-0.2s-0.4,0.1-0.5,0.2
				s-0.2,0.3-0.2,0.6V117z"/>
			<path fill="#E86F30" d="M190.6,116c0-0.2-0.1-0.4-0.2-0.5c-0.1-0.1-0.3-0.2-0.5-0.2c-0.2,0-0.4,0.1-0.5,0.2
				c-0.1,0.1-0.2,0.3-0.2,0.5c0,0.1,0,0.3,0.1,0.4c0.1,0.1,0.2,0.2,0.5,0.3l0.8,0.3c0.5,0.2,0.9,0.5,1.1,0.8
				c0.2,0.4,0.3,0.7,0.3,1.2c0,0.3-0.1,0.6-0.2,0.8c-0.1,0.3-0.3,0.5-0.4,0.7c-0.2,0.2-0.4,0.4-0.7,0.5s-0.5,0.2-0.9,0.2
				c-0.3,0-0.5,0-0.8-0.1s-0.5-0.2-0.7-0.4s-0.3-0.4-0.5-0.7c-0.1-0.3-0.2-0.6-0.2-0.9h1.3c0,0.2,0.1,0.4,0.2,0.5s0.3,0.3,0.6,0.3
				c0.2,0,0.4-0.1,0.6-0.2c0.2-0.1,0.2-0.3,0.2-0.6c0-0.2-0.1-0.4-0.2-0.5c-0.1-0.1-0.3-0.3-0.6-0.4l-0.7-0.3
				c-0.4-0.2-0.8-0.4-1.1-0.7c-0.3-0.3-0.4-0.7-0.4-1.2c0-0.3,0.1-0.6,0.2-0.8c0.1-0.3,0.3-0.5,0.5-0.7s0.4-0.3,0.7-0.4
				s0.5-0.2,0.8-0.2c0.3,0,0.6,0.1,0.8,0.2c0.2,0.1,0.5,0.3,0.6,0.4c0.2,0.2,0.3,0.4,0.4,0.7c0.1,0.3,0.2,0.5,0.2,0.8H190.6z"/>
		</g>
	</g>
	<g id="Carmelo">
		<g>
			<path fill="#E86F30" d="M124,80.6c0,0.3-0.1,0.6-0.2,0.9c-0.1,0.3-0.3,0.5-0.5,0.7c-0.2,0.2-0.4,0.4-0.7,0.5
				c-0.3,0.1-0.6,0.2-0.9,0.2c-0.3,0-0.5,0-0.8-0.1c-0.3-0.1-0.5-0.2-0.8-0.4s-0.4-0.4-0.6-0.7c-0.1-0.3-0.2-0.7-0.2-1.1v-5.5
				c0-0.3,0.1-0.6,0.2-0.9c0.1-0.3,0.3-0.5,0.5-0.7c0.2-0.2,0.5-0.4,0.7-0.5s0.6-0.2,0.9-0.2c0.3,0,0.6,0.1,0.9,0.2
				c0.3,0.1,0.5,0.3,0.7,0.5c0.2,0.2,0.4,0.5,0.5,0.8c0.1,0.3,0.2,0.6,0.2,1v0.6h-1.4v-0.5c0-0.3-0.1-0.5-0.2-0.7
				c-0.2-0.2-0.4-0.3-0.6-0.3c-0.4,0-0.6,0.1-0.7,0.3s-0.2,0.5-0.2,0.8v5.1c0,0.3,0.1,0.5,0.2,0.7c0.1,0.2,0.4,0.3,0.7,0.3
				c0.1,0,0.2,0,0.3,0c0.1,0,0.2-0.1,0.3-0.2c0.1-0.1,0.2-0.2,0.2-0.3c0.1-0.1,0.1-0.3,0.1-0.5V80h1.4V80.6z"/>
			<path fill="#E86F30" d="M127.7,82.1L127.7,82.1c-0.2,0.3-0.4,0.5-0.6,0.6s-0.5,0.2-0.8,0.2c-0.2,0-0.3,0-0.5-0.1
				c-0.2-0.1-0.3-0.1-0.5-0.3s-0.3-0.3-0.4-0.6c-0.1-0.2-0.1-0.6-0.1-1c0-0.4,0-0.8,0.1-1.1c0.1-0.3,0.2-0.6,0.4-0.8
				c0.2-0.2,0.4-0.4,0.7-0.4c0.3-0.1,0.7-0.1,1.1-0.1c0.1,0,0.2,0,0.3,0c0.1,0,0.2,0,0.4,0v-0.7c0-0.2-0.1-0.4-0.2-0.6
				c-0.1-0.2-0.3-0.2-0.6-0.2c-0.2,0-0.4,0.1-0.5,0.2c-0.2,0.1-0.3,0.3-0.3,0.5h-1.4c0-0.6,0.3-1.2,0.6-1.5c0.2-0.2,0.4-0.3,0.7-0.4
				s0.6-0.2,0.9-0.2c0.3,0,0.6,0,0.8,0.1s0.5,0.2,0.7,0.4c0.2,0.2,0.3,0.4,0.5,0.7c0.1,0.3,0.2,0.6,0.2,1v4.9h-1.4V82.1z
				 M127.7,79.8c-0.2,0-0.3,0-0.4,0c-0.3,0-0.6,0.1-0.8,0.2s-0.3,0.4-0.3,0.8c0,0.3,0.1,0.5,0.2,0.7c0.1,0.2,0.3,0.3,0.5,0.3
				c0.2,0,0.4-0.1,0.6-0.2s0.2-0.4,0.2-0.7V79.8z"/>
			<path fill="#E86F30" d="M130.2,75.7h1.4v0.8c0.3-0.3,0.6-0.5,0.9-0.6c0.3-0.1,0.6-0.2,1-0.2v1.5c-0.1-0.1-0.3-0.1-0.4-0.1
				c-0.1,0-0.3,0-0.5,0.1c-0.2,0.1-0.3,0.1-0.5,0.3c-0.1,0.1-0.3,0.3-0.4,0.5c-0.1,0.2-0.1,0.4-0.1,0.7v4.2h-1.4V75.7z"/>
			<path fill="#E86F30" d="M134.1,75.7h1.4v0.7h0c0.1-0.2,0.3-0.4,0.5-0.6s0.5-0.2,0.8-0.2c0.3,0,0.6,0.1,0.8,0.2
				c0.2,0.1,0.4,0.3,0.5,0.5c0.2-0.2,0.4-0.4,0.6-0.5c0.2-0.1,0.5-0.2,0.9-0.2c0.2,0,0.4,0,0.5,0.1s0.4,0.2,0.5,0.3s0.3,0.3,0.4,0.5
				s0.1,0.5,0.1,0.8v5.4h-1.4v-4.9c0-0.3-0.1-0.5-0.2-0.6c-0.1-0.1-0.3-0.2-0.5-0.2c-0.3,0-0.5,0.1-0.6,0.3
				c-0.1,0.2-0.2,0.4-0.2,0.7v4.8H137v-4.9c0-0.3-0.1-0.5-0.2-0.6c-0.1-0.1-0.3-0.2-0.5-0.2c-0.3,0-0.5,0.1-0.6,0.3
				s-0.2,0.4-0.2,0.7v4.8h-1.4V75.7z"/>
			<path fill="#E86F30" d="M143.7,79.8v1c0,0.2,0.1,0.4,0.2,0.5s0.3,0.2,0.5,0.2c0.3,0,0.5-0.1,0.5-0.2s0.1-0.3,0.2-0.5h1.4
				c0,0.3,0,0.6-0.1,0.8c-0.1,0.3-0.2,0.5-0.4,0.7c-0.2,0.2-0.4,0.4-0.7,0.5c-0.3,0.1-0.6,0.2-0.9,0.2c-0.4,0-0.8-0.1-1.1-0.3
				c-0.3-0.2-0.6-0.4-0.7-0.7c-0.1-0.2-0.2-0.4-0.2-0.6c0-0.2-0.1-0.5-0.1-0.8v-2.3c0-0.3,0-0.6,0.1-0.8c0-0.2,0.1-0.5,0.2-0.6
				c0.2-0.3,0.4-0.6,0.7-0.7c0.3-0.2,0.7-0.3,1.1-0.3c0.3,0,0.6,0.1,0.9,0.2c0.3,0.1,0.5,0.3,0.7,0.5c0.2,0.2,0.3,0.4,0.4,0.7
				c0.1,0.3,0.1,0.6,0.1,0.9v2H143.7z M143.7,78.7h1.4v-0.8c0-0.3-0.1-0.5-0.2-0.6s-0.3-0.2-0.5-0.2s-0.4,0.1-0.5,0.2
				s-0.2,0.3-0.2,0.6V78.7z"/>
			<path fill="#E86F30" d="M147.5,72.9h1.4v8c0,0.3,0,0.5,0.1,0.6c0.1,0.1,0.3,0.2,0.6,0.2v1.3c-0.3,0-0.6,0-0.9-0.1
				c-0.3-0.1-0.5-0.1-0.7-0.3c-0.2-0.1-0.3-0.3-0.4-0.6c-0.1-0.3-0.1-0.6-0.1-1V72.9z"/>
			<path fill="#E86F30" d="M150.1,78.1c0-0.3,0-0.6,0.1-0.8c0-0.2,0.1-0.5,0.2-0.6c0.2-0.3,0.4-0.6,0.7-0.7c0.3-0.2,0.7-0.3,1.1-0.3
				c0.4,0,0.8,0.1,1.1,0.3c0.3,0.2,0.6,0.4,0.7,0.7c0.1,0.2,0.2,0.4,0.2,0.6c0,0.2,0.1,0.5,0.1,0.8v2.3c0,0.3,0,0.6-0.1,0.8
				c0,0.2-0.1,0.5-0.2,0.6c-0.2,0.3-0.4,0.6-0.7,0.7c-0.3,0.2-0.7,0.3-1.1,0.3c-0.4,0-0.8-0.1-1.1-0.3c-0.3-0.2-0.6-0.4-0.7-0.7
				c-0.1-0.2-0.2-0.4-0.2-0.6c0-0.2-0.1-0.5-0.1-0.8V78.1z M151.5,80.7c0,0.3,0.1,0.5,0.2,0.6s0.3,0.2,0.5,0.2s0.4-0.1,0.5-0.2
				s0.2-0.3,0.2-0.6v-2.8c0-0.3-0.1-0.5-0.2-0.6s-0.3-0.2-0.5-0.2s-0.4,0.1-0.5,0.2s-0.2,0.3-0.2,0.6V80.7z"/>
			<path fill="#E86F30" d="M159.6,72.9h1.2l2.2,10h-1.4l-0.4-2.1h-1.9l-0.4,2.1h-1.4L159.6,72.9z M160.2,75.7L160.2,75.7l-0.7,3.6
				h1.4L160.2,75.7z"/>
			<path fill="#E86F30" d="M163.7,75.7h1.4v0.7h0c0.1-0.2,0.3-0.4,0.5-0.6s0.5-0.2,0.8-0.2c0.2,0,0.4,0,0.5,0.1s0.3,0.2,0.5,0.3
				s0.3,0.3,0.3,0.5s0.1,0.5,0.1,0.8v5.4h-1.4v-4.9c0-0.3-0.1-0.5-0.2-0.6c-0.1-0.1-0.3-0.2-0.5-0.2c-0.3,0-0.5,0.1-0.6,0.3
				s-0.2,0.4-0.2,0.7v4.8h-1.4V75.7z"/>
			<path fill="#E86F30" d="M169.1,73.6h1.4v2.2h0.9v1.1h-0.9v3.9c0,0.2,0,0.3,0,0.4s0.1,0.2,0.2,0.2c0.1,0,0.2,0.1,0.3,0.1
				c0.1,0,0.2,0,0.4,0v1.3h-0.6c-0.3,0-0.6-0.1-0.8-0.2c-0.2-0.1-0.4-0.2-0.5-0.4s-0.2-0.3-0.3-0.5c-0.1-0.2-0.1-0.4-0.1-0.6v-4.3
				h-0.7v-1.1h0.7V73.6z"/>
			<path fill="#E86F30" d="M172,72.9h1.4v3.6h0c0.1-0.2,0.3-0.4,0.5-0.6s0.5-0.2,0.8-0.2c0.2,0,0.4,0,0.5,0.1s0.3,0.2,0.5,0.3
				s0.3,0.3,0.3,0.5s0.1,0.5,0.1,0.8v5.4h-1.4v-4.9c0-0.3-0.1-0.5-0.2-0.6c-0.1-0.1-0.3-0.2-0.5-0.2c-0.3,0-0.5,0.1-0.6,0.3
				s-0.2,0.4-0.2,0.7v4.8H172V72.9z"/>
			<path fill="#E86F30" d="M177.3,78.1c0-0.3,0-0.6,0.1-0.8c0-0.2,0.1-0.5,0.2-0.6c0.2-0.3,0.4-0.6,0.7-0.7c0.3-0.2,0.7-0.3,1.1-0.3
				c0.4,0,0.8,0.1,1.1,0.3c0.3,0.2,0.6,0.4,0.7,0.7c0.1,0.2,0.2,0.4,0.2,0.6c0,0.2,0.1,0.5,0.1,0.8v2.3c0,0.3,0,0.6-0.1,0.8
				c0,0.2-0.1,0.5-0.2,0.6c-0.2,0.3-0.4,0.6-0.7,0.7c-0.3,0.2-0.7,0.3-1.1,0.3c-0.4,0-0.8-0.1-1.1-0.3c-0.3-0.2-0.6-0.4-0.7-0.7
				c-0.1-0.2-0.2-0.4-0.2-0.6c0-0.2-0.1-0.5-0.1-0.8V78.1z M178.7,80.7c0,0.3,0.1,0.5,0.2,0.6s0.3,0.2,0.5,0.2s0.4-0.1,0.5-0.2
				s0.2-0.3,0.2-0.6v-2.8c0-0.3-0.1-0.5-0.2-0.6s-0.3-0.2-0.5-0.2s-0.4,0.1-0.5,0.2s-0.2,0.3-0.2,0.6V80.7z"/>
			<path fill="#E86F30" d="M182.6,75.7h1.4v0.7h0c0.1-0.2,0.3-0.4,0.5-0.6s0.5-0.2,0.8-0.2c0.2,0,0.4,0,0.5,0.1s0.3,0.2,0.5,0.3
				s0.3,0.3,0.3,0.5s0.1,0.5,0.1,0.8v5.4h-1.4v-4.9c0-0.3-0.1-0.5-0.2-0.6c-0.1-0.1-0.3-0.2-0.5-0.2c-0.3,0-0.5,0.1-0.6,0.3
				s-0.2,0.4-0.2,0.7v4.8h-1.4V75.7z"/>
			<path fill="#E86F30" d="M189,75.7l1,4.4h0l1-4.4h1.5l-2,8.3c-0.1,0.3-0.2,0.6-0.3,0.8s-0.3,0.4-0.5,0.5s-0.4,0.2-0.6,0.3
				s-0.4,0.1-0.6,0.1H188v-1.3h0.3c0.1,0,0.3,0,0.4-0.1c0.1,0,0.2-0.1,0.3-0.2c0.1-0.1,0.2-0.3,0.2-0.6c0.1-0.2,0.1-0.6,0.2-1
				l-1.9-6.8H189z"/>
		</g>
	</g>
	<g id="Pau">
		<g>
			<path fill="#E86F30" d="M150.4,149.4h2.1c0.4,0,0.7,0.1,1,0.2c0.3,0.1,0.6,0.3,0.8,0.5c0.2,0.3,0.4,0.6,0.5,0.9
				c0.1,0.4,0.1,0.8,0.1,1.4c0,0.4,0,0.8-0.1,1.1c-0.1,0.3-0.2,0.6-0.3,0.9c-0.2,0.3-0.5,0.6-0.8,0.8c-0.3,0.2-0.8,0.3-1.3,0.3h-0.7
				v3.9h-1.4V149.4z M151.8,154.1h0.7c0.3,0,0.5,0,0.7-0.1s0.3-0.2,0.4-0.3s0.1-0.3,0.1-0.5c0-0.2,0-0.4,0-0.7c0-0.2,0-0.5,0-0.7
				s-0.1-0.4-0.1-0.5c-0.1-0.2-0.2-0.3-0.3-0.4s-0.4-0.1-0.6-0.1h-0.7V154.1z"/>
			<path fill="#E86F30" d="M158.6,158.6L158.6,158.6c-0.2,0.3-0.4,0.5-0.6,0.6s-0.5,0.2-0.8,0.2c-0.2,0-0.3,0-0.5-0.1
				c-0.2-0.1-0.3-0.1-0.5-0.3c-0.2-0.1-0.3-0.3-0.4-0.6c-0.1-0.2-0.1-0.6-0.1-1c0-0.4,0-0.8,0.1-1.1c0.1-0.3,0.2-0.6,0.4-0.8
				c0.2-0.2,0.4-0.4,0.7-0.4c0.3-0.1,0.7-0.1,1.1-0.1c0.1,0,0.2,0,0.3,0c0.1,0,0.2,0,0.4,0v-0.7c0-0.2-0.1-0.4-0.2-0.6
				c-0.1-0.2-0.3-0.2-0.6-0.2c-0.2,0-0.4,0.1-0.5,0.2c-0.2,0.1-0.3,0.3-0.3,0.5h-1.4c0-0.6,0.3-1.2,0.6-1.5c0.2-0.2,0.4-0.3,0.7-0.4
				s0.6-0.2,0.9-0.2c0.3,0,0.6,0,0.8,0.1c0.3,0.1,0.5,0.2,0.7,0.4c0.2,0.2,0.3,0.4,0.5,0.7c0.1,0.3,0.2,0.6,0.2,1v4.9h-1.4V158.6z
				 M158.6,156.3c-0.2,0-0.3,0-0.4,0c-0.3,0-0.6,0.1-0.8,0.2s-0.3,0.4-0.3,0.8c0,0.3,0.1,0.5,0.2,0.7c0.1,0.2,0.3,0.3,0.5,0.3
				c0.2,0,0.4-0.1,0.6-0.2s0.2-0.4,0.2-0.7V156.3z"/>
			<path fill="#E86F30" d="M165.3,159.3h-1.4v-0.7h0c-0.1,0.2-0.3,0.4-0.5,0.6c-0.2,0.1-0.5,0.2-0.8,0.2c-0.2,0-0.4,0-0.5-0.1
				s-0.3-0.2-0.5-0.3c-0.1-0.1-0.3-0.3-0.3-0.5c-0.1-0.2-0.1-0.5-0.1-0.8v-5.4h1.4v4.9c0,0.3,0.1,0.5,0.2,0.6
				c0.1,0.1,0.3,0.2,0.5,0.2c0.3,0,0.5-0.1,0.6-0.3s0.2-0.4,0.2-0.7v-4.8h1.4V159.3z"/>
			<path fill="#E86F30" d="M169.1,151.7c0-0.4,0.1-0.8,0.2-1.1c0.1-0.3,0.3-0.6,0.6-0.8c0.2-0.2,0.5-0.4,0.8-0.5s0.6-0.2,0.9-0.2
				c0.3,0,0.6,0.1,0.9,0.2s0.5,0.3,0.8,0.5c0.2,0.2,0.4,0.5,0.6,0.8c0.1,0.3,0.2,0.7,0.2,1.1v0.5h-1.4v-0.5c0-0.3-0.1-0.6-0.3-0.8
				c-0.2-0.2-0.4-0.2-0.7-0.2s-0.5,0.1-0.7,0.2c-0.2,0.2-0.3,0.4-0.3,0.8v5.3c0,0.3,0.1,0.6,0.3,0.8c0.2,0.2,0.4,0.2,0.7,0.2
				s0.5-0.1,0.7-0.2c0.2-0.2,0.3-0.4,0.3-0.8v-1.9h-1.1v-1.3h2.6v3.1c0,0.4-0.1,0.8-0.2,1.1c-0.1,0.3-0.3,0.6-0.6,0.8
				c-0.2,0.2-0.5,0.4-0.8,0.5s-0.6,0.2-0.9,0.2c-0.3,0-0.6-0.1-0.9-0.2s-0.5-0.3-0.8-0.5c-0.2-0.2-0.4-0.5-0.6-0.8
				c-0.1-0.3-0.2-0.7-0.2-1.1V151.7z"/>
			<path fill="#E86F30" d="M177.8,158.6L177.8,158.6c-0.2,0.3-0.4,0.5-0.6,0.6s-0.5,0.2-0.8,0.2c-0.2,0-0.3,0-0.5-0.1
				c-0.2-0.1-0.3-0.1-0.5-0.3c-0.2-0.1-0.3-0.3-0.4-0.6c-0.1-0.2-0.1-0.6-0.1-1c0-0.4,0-0.8,0.1-1.1c0.1-0.3,0.2-0.6,0.4-0.8
				c0.2-0.2,0.4-0.4,0.7-0.4c0.3-0.1,0.7-0.1,1.1-0.1c0.1,0,0.2,0,0.3,0c0.1,0,0.2,0,0.4,0v-0.7c0-0.2-0.1-0.4-0.2-0.6
				c-0.1-0.2-0.3-0.2-0.6-0.2c-0.2,0-0.4,0.1-0.5,0.2c-0.2,0.1-0.3,0.3-0.3,0.5h-1.4c0-0.6,0.3-1.2,0.6-1.5c0.2-0.2,0.4-0.3,0.7-0.4
				s0.6-0.2,0.9-0.2c0.3,0,0.6,0,0.8,0.1c0.3,0.1,0.5,0.2,0.7,0.4c0.2,0.2,0.3,0.4,0.5,0.7c0.1,0.3,0.2,0.6,0.2,1v4.9h-1.4V158.6z
				 M177.8,156.3c-0.2,0-0.3,0-0.4,0c-0.3,0-0.6,0.1-0.8,0.2s-0.3,0.4-0.3,0.8c0,0.3,0.1,0.5,0.2,0.7c0.1,0.2,0.3,0.3,0.5,0.3
				c0.2,0,0.4-0.1,0.6-0.2s0.2-0.4,0.2-0.7V156.3z"/>
			<path fill="#E86F30" d="M182.8,154.2c0-0.2-0.1-0.4-0.2-0.5c-0.1-0.1-0.3-0.2-0.5-0.2c-0.2,0-0.4,0.1-0.5,0.2
				c-0.1,0.1-0.2,0.3-0.2,0.5c0,0.1,0,0.3,0.1,0.4c0.1,0.1,0.2,0.2,0.5,0.3l0.8,0.3c0.5,0.2,0.9,0.5,1.1,0.8
				c0.2,0.4,0.3,0.7,0.3,1.2c0,0.3-0.1,0.6-0.2,0.8c-0.1,0.3-0.3,0.5-0.4,0.7c-0.2,0.2-0.4,0.3-0.7,0.5s-0.5,0.2-0.9,0.2
				c-0.3,0-0.5,0-0.8-0.1c-0.3-0.1-0.5-0.2-0.7-0.4s-0.3-0.4-0.5-0.7c-0.1-0.3-0.2-0.6-0.2-0.9h1.3c0,0.2,0.1,0.4,0.2,0.5
				s0.3,0.3,0.6,0.3c0.2,0,0.4-0.1,0.6-0.2c0.2-0.1,0.2-0.3,0.2-0.6c0-0.2-0.1-0.4-0.2-0.5c-0.1-0.1-0.3-0.3-0.6-0.4l-0.7-0.3
				c-0.4-0.2-0.8-0.4-1.1-0.7c-0.3-0.3-0.4-0.7-0.4-1.2c0-0.3,0.1-0.6,0.2-0.8c0.1-0.3,0.3-0.5,0.5-0.7c0.2-0.2,0.4-0.3,0.7-0.4
				s0.5-0.2,0.8-0.2c0.3,0,0.6,0.1,0.8,0.2c0.2,0.1,0.5,0.3,0.6,0.4c0.2,0.2,0.3,0.4,0.4,0.7c0.1,0.3,0.2,0.5,0.2,0.8H182.8z"/>
			<path fill="#E86F30" d="M185,154.6c0-0.3,0-0.6,0.1-0.8c0-0.2,0.1-0.5,0.2-0.6c0.2-0.3,0.4-0.6,0.7-0.7c0.3-0.2,0.7-0.3,1.1-0.3
				c0.4,0,0.8,0.1,1.1,0.3c0.3,0.2,0.6,0.4,0.7,0.7c0.1,0.2,0.2,0.4,0.2,0.6c0,0.2,0.1,0.5,0.1,0.8v2.3c0,0.3,0,0.6-0.1,0.8
				c0,0.2-0.1,0.5-0.2,0.6c-0.2,0.3-0.4,0.6-0.7,0.7c-0.3,0.2-0.7,0.3-1.1,0.3c-0.4,0-0.8-0.1-1.1-0.3c-0.3-0.2-0.6-0.4-0.7-0.7
				c-0.1-0.2-0.2-0.4-0.2-0.6c0-0.2-0.1-0.5-0.1-0.8V154.6z M186.5,157.2c0,0.3,0.1,0.5,0.2,0.6c0.1,0.1,0.3,0.2,0.5,0.2
				s0.4-0.1,0.5-0.2c0.1-0.1,0.2-0.3,0.2-0.6v-2.8c0-0.3-0.1-0.5-0.2-0.6c-0.1-0.1-0.3-0.2-0.5-0.2s-0.4,0.1-0.5,0.2
				c-0.1,0.1-0.2,0.3-0.2,0.6V157.2z"/>
			<path fill="#E86F30" d="M190.3,149.4h1.4v8c0,0.3,0,0.5,0.1,0.6c0.1,0.1,0.3,0.2,0.6,0.2v1.3c-0.3,0-0.6,0-0.9-0.1
				c-0.3-0.1-0.5-0.1-0.7-0.3c-0.2-0.1-0.3-0.3-0.4-0.6c-0.1-0.3-0.1-0.6-0.1-1V149.4z"/>
		</g>
	</g>
	<g id="John">
		<g>
			<path fill="#E86F30" d="M154.7,195.2c0,0.3-0.1,0.6-0.2,0.9c-0.1,0.3-0.3,0.6-0.5,0.8c-0.2,0.2-0.5,0.4-0.8,0.5
				c-0.3,0.1-0.6,0.2-1,0.2c-0.5,0-0.8-0.1-1.1-0.3c-0.3-0.2-0.5-0.4-0.7-0.6l1.1-0.9c0.1,0.1,0.2,0.2,0.4,0.3
				c0.1,0.1,0.3,0.1,0.4,0.1c0.1,0,0.2,0,0.3,0c0.1,0,0.2-0.1,0.3-0.2s0.2-0.2,0.3-0.4c0.1-0.2,0.1-0.4,0.1-0.6v-7.4h1.4V195.2z"/>
			<path fill="#E86F30" d="M155.7,192.8c0-0.3,0-0.6,0.1-0.8c0-0.2,0.1-0.5,0.2-0.6c0.2-0.3,0.4-0.6,0.7-0.7
				c0.3-0.2,0.7-0.3,1.1-0.3c0.4,0,0.8,0.1,1.1,0.3c0.3,0.2,0.6,0.4,0.7,0.7c0.1,0.2,0.2,0.4,0.2,0.6c0,0.2,0.1,0.5,0.1,0.8v2.3
				c0,0.3,0,0.6-0.1,0.8c0,0.2-0.1,0.5-0.2,0.6c-0.2,0.3-0.4,0.6-0.7,0.7c-0.3,0.2-0.7,0.3-1.1,0.3c-0.4,0-0.8-0.1-1.1-0.3
				c-0.3-0.2-0.6-0.4-0.7-0.7c-0.1-0.2-0.2-0.4-0.2-0.6c0-0.2-0.1-0.5-0.1-0.8V192.8z M157.1,195.4c0,0.3,0.1,0.5,0.2,0.6
				s0.3,0.2,0.5,0.2s0.4-0.1,0.5-0.2s0.2-0.3,0.2-0.6v-2.8c0-0.3-0.1-0.5-0.2-0.6c-0.1-0.1-0.3-0.2-0.5-0.2s-0.4,0.1-0.5,0.2
				c-0.1,0.1-0.2,0.3-0.2,0.6V195.4z"/>
			<path fill="#E86F30" d="M161,187.6h1.4v3.6h0c0.1-0.2,0.3-0.4,0.5-0.6s0.5-0.2,0.8-0.2c0.2,0,0.4,0,0.5,0.1s0.3,0.2,0.5,0.3
				s0.3,0.3,0.3,0.5c0.1,0.2,0.1,0.5,0.1,0.8v5.4h-1.4v-4.9c0-0.3-0.1-0.5-0.2-0.6c-0.1-0.1-0.3-0.2-0.5-0.2c-0.3,0-0.5,0.1-0.6,0.3
				s-0.2,0.4-0.2,0.7v4.8H161V187.6z"/>
			<path fill="#E86F30" d="M166.5,190.5h1.4v0.7h0c0.1-0.2,0.3-0.4,0.5-0.6s0.5-0.2,0.8-0.2c0.2,0,0.4,0,0.5,0.1s0.3,0.2,0.5,0.3
				s0.3,0.3,0.3,0.5c0.1,0.2,0.1,0.5,0.1,0.8v5.4h-1.4v-4.9c0-0.3-0.1-0.5-0.2-0.6c-0.1-0.1-0.3-0.2-0.5-0.2c-0.3,0-0.5,0.1-0.6,0.3
				s-0.2,0.4-0.2,0.7v4.8h-1.4V190.5z"/>
			<path fill="#E86F30" d="M180.5,197.6h-1.3l-1.1-6.5h0l-1.1,6.5h-1.3l-1.5-10h1.5l0.7,6.3h0l1.1-6.3h1.1l1.2,6.5h0l0.7-6.5h1.5
				L180.5,197.6z"/>
			<path fill="#E86F30" d="M185.3,196.8L185.3,196.8c-0.2,0.3-0.4,0.5-0.6,0.6s-0.5,0.2-0.8,0.2c-0.2,0-0.3,0-0.5-0.1
				c-0.2-0.1-0.3-0.1-0.5-0.3c-0.2-0.1-0.3-0.3-0.4-0.6s-0.1-0.6-0.1-1c0-0.4,0-0.8,0.1-1.1c0.1-0.3,0.2-0.6,0.4-0.8
				c0.2-0.2,0.4-0.3,0.7-0.4c0.3-0.1,0.7-0.1,1.1-0.1c0.1,0,0.2,0,0.3,0c0.1,0,0.2,0,0.4,0v-0.7c0-0.2-0.1-0.4-0.2-0.6
				c-0.1-0.2-0.3-0.2-0.6-0.2c-0.2,0-0.4,0.1-0.5,0.2c-0.2,0.1-0.3,0.3-0.3,0.5h-1.4c0-0.6,0.3-1.2,0.6-1.5c0.2-0.2,0.4-0.3,0.7-0.4
				c0.3-0.1,0.6-0.2,0.9-0.2c0.3,0,0.6,0,0.8,0.1c0.3,0.1,0.5,0.2,0.7,0.4c0.2,0.2,0.3,0.4,0.5,0.7c0.1,0.3,0.2,0.6,0.2,1v4.9h-1.4
				V196.8z M185.3,194.5c-0.2,0-0.3,0-0.4,0c-0.3,0-0.6,0.1-0.8,0.2s-0.3,0.4-0.3,0.8c0,0.3,0.1,0.5,0.2,0.7
				c0.1,0.2,0.3,0.3,0.5,0.3c0.2,0,0.4-0.1,0.6-0.2c0.1-0.2,0.2-0.4,0.2-0.7V194.5z"/>
			<path fill="#E86F30" d="M187.7,187.6h1.4v8c0,0.3,0,0.5,0.1,0.6c0.1,0.1,0.3,0.2,0.6,0.2v1.3c-0.3,0-0.6,0-0.9-0.1
				c-0.3-0.1-0.5-0.1-0.7-0.3c-0.2-0.1-0.3-0.3-0.4-0.6c-0.1-0.3-0.1-0.6-0.1-1V187.6z"/>
			<path fill="#E86F30" d="M190.3,187.6h1.4v8c0,0.3,0,0.5,0.1,0.6c0.1,0.1,0.3,0.2,0.6,0.2v1.3c-0.3,0-0.6,0-0.9-0.1
				c-0.3-0.1-0.5-0.1-0.7-0.3c-0.2-0.1-0.3-0.3-0.4-0.6c-0.1-0.3-0.1-0.6-0.1-1V187.6z"/>
		</g>
	</g>
	<g id="Kyle">
		<g>
			<path fill="#E86F30" d="M145.2,225.8h1.4v4.5h0l2.1-4.5h1.4l-1.9,4l2.3,6H149l-1.6-4.4l-0.8,1.4v3h-1.4V225.8z"/>
			<path fill="#E86F30" d="M151.7,228.7l1,4.4h0l1-4.4h1.5l-2,8.3c-0.1,0.3-0.2,0.6-0.3,0.8s-0.3,0.4-0.5,0.5s-0.4,0.2-0.6,0.3
				c-0.2,0.1-0.4,0.1-0.6,0.1h-0.4v-1.3h0.3c0.1,0,0.3,0,0.4-0.1c0.1,0,0.2-0.1,0.3-0.2c0.1-0.1,0.2-0.3,0.2-0.6
				c0.1-0.2,0.1-0.6,0.2-1l-1.9-6.8H151.7z"/>
			<path fill="#E86F30" d="M155.6,225.8h1.4v8c0,0.3,0,0.5,0.1,0.6c0.1,0.1,0.3,0.2,0.6,0.2v1.3c-0.3,0-0.6,0-0.9-0.1
				c-0.3-0.1-0.5-0.1-0.7-0.3c-0.2-0.1-0.3-0.3-0.4-0.6c-0.1-0.3-0.1-0.6-0.1-1V225.8z"/>
			<path fill="#E86F30" d="M159.6,232.8v1c0,0.2,0.1,0.4,0.2,0.5c0.1,0.1,0.3,0.2,0.5,0.2c0.3,0,0.5-0.1,0.5-0.2
				c0.1-0.2,0.1-0.3,0.2-0.5h1.4c0,0.3,0,0.6-0.1,0.8c-0.1,0.3-0.2,0.5-0.4,0.7c-0.2,0.2-0.4,0.3-0.7,0.5c-0.3,0.1-0.6,0.2-0.9,0.2
				c-0.4,0-0.8-0.1-1.1-0.3c-0.3-0.2-0.6-0.4-0.7-0.7c-0.1-0.2-0.2-0.4-0.2-0.6c0-0.2-0.1-0.5-0.1-0.8v-2.3c0-0.3,0-0.6,0.1-0.8
				c0-0.2,0.1-0.5,0.2-0.6c0.2-0.3,0.4-0.6,0.7-0.7c0.3-0.2,0.7-0.3,1.1-0.3c0.3,0,0.6,0.1,0.9,0.2c0.3,0.1,0.5,0.3,0.7,0.5
				c0.2,0.2,0.3,0.4,0.4,0.7c0.1,0.3,0.1,0.6,0.1,0.9v2H159.6z M159.6,231.7h1.4v-0.8c0-0.3-0.1-0.5-0.2-0.6
				c-0.1-0.1-0.3-0.2-0.5-0.2s-0.4,0.1-0.5,0.2c-0.1,0.1-0.2,0.3-0.2,0.6V231.7z"/>
			<path fill="#E86F30" d="M166.2,225.8h1.4v8.5h2.8v1.4h-4.3V225.8z"/>
			<path fill="#E86F30" d="M171.2,231.1c0-0.3,0-0.6,0.1-0.8c0-0.2,0.1-0.5,0.2-0.6c0.2-0.3,0.4-0.6,0.7-0.7
				c0.3-0.2,0.7-0.3,1.1-0.3c0.4,0,0.8,0.1,1.1,0.3c0.3,0.2,0.6,0.4,0.7,0.7c0.1,0.2,0.2,0.4,0.2,0.6c0,0.2,0.1,0.5,0.1,0.8v2.3
				c0,0.3,0,0.6-0.1,0.8c0,0.2-0.1,0.5-0.2,0.6c-0.2,0.3-0.4,0.6-0.7,0.7c-0.3,0.2-0.7,0.3-1.1,0.3c-0.4,0-0.8-0.1-1.1-0.3
				c-0.3-0.2-0.6-0.4-0.7-0.7c-0.1-0.2-0.2-0.4-0.2-0.6c0-0.2-0.1-0.5-0.1-0.8V231.1z M172.6,233.6c0,0.3,0.1,0.5,0.2,0.6
				s0.3,0.2,0.5,0.2s0.4-0.1,0.5-0.2s0.2-0.3,0.2-0.6v-2.8c0-0.3-0.1-0.5-0.2-0.6c-0.1-0.1-0.3-0.2-0.5-0.2s-0.4,0.1-0.5,0.2
				c-0.1,0.1-0.2,0.3-0.2,0.6V233.6z"/>
			<path fill="#E86F30" d="M181.6,235.8h-1.3l-0.8-4.2h0l-0.8,4.2h-1.3l-1.7-7.1h1.5l0.9,4.4h0l0.8-4.4h1.1l0.8,4.4h0l0.9-4.4h1.5
				L181.6,235.8z"/>
			<path fill="#E86F30" d="M183.9,228.7h1.4v0.8c0.3-0.3,0.6-0.5,0.9-0.6c0.3-0.1,0.6-0.2,1-0.2v1.5c-0.1-0.1-0.3-0.1-0.4-0.1
				c-0.1,0-0.3,0-0.5,0.1c-0.2,0.1-0.3,0.1-0.5,0.3c-0.1,0.1-0.3,0.3-0.4,0.5c-0.1,0.2-0.1,0.4-0.1,0.7v4.2h-1.4V228.7z"/>
			<path fill="#E86F30" d="M188.9,228.7l1,4.4h0l1-4.4h1.5l-2,8.3c-0.1,0.3-0.2,0.6-0.3,0.8s-0.3,0.4-0.5,0.5s-0.4,0.2-0.6,0.3
				c-0.2,0.1-0.4,0.1-0.6,0.1H188v-1.3h0.3c0.1,0,0.3,0,0.4-0.1c0.1,0,0.2-0.1,0.3-0.2c0.1-0.1,0.2-0.3,0.2-0.6
				c0.1-0.2,0.1-0.6,0.2-1l-1.9-6.8H188.9z"/>
		</g>
	</g>
	<g>
		<path fill="#E86F30" d="M96.3,43.1h4.9v1.5h-3.2V48h2.8v1.5h-2.8v3.3h3.2v1.6h-4.9V43.1z"/>
		<path fill="#E86F30" d="M105.2,53.6L105.2,53.6c-0.2,0.3-0.5,0.5-0.7,0.7c-0.2,0.2-0.5,0.2-0.9,0.2c-0.2,0-0.4,0-0.6-0.1
			c-0.2-0.1-0.4-0.2-0.6-0.3c-0.2-0.2-0.3-0.4-0.4-0.7c-0.1-0.3-0.2-0.6-0.2-1.1c0-0.5,0-0.9,0.1-1.2c0.1-0.3,0.2-0.6,0.4-0.9
			c0.2-0.2,0.5-0.4,0.8-0.5s0.8-0.2,1.3-0.2c0.1,0,0.2,0,0.4,0c0.1,0,0.3,0,0.4,0v-0.8c0-0.3-0.1-0.5-0.2-0.7
			c-0.1-0.2-0.3-0.3-0.6-0.3c-0.2,0-0.4,0.1-0.6,0.2c-0.2,0.1-0.3,0.3-0.3,0.6h-1.6c0.1-0.7,0.3-1.3,0.7-1.8
			c0.2-0.2,0.5-0.4,0.8-0.5c0.3-0.1,0.6-0.2,1-0.2c0.3,0,0.7,0.1,1,0.2c0.3,0.1,0.6,0.3,0.8,0.5c0.2,0.2,0.4,0.5,0.5,0.8
			c0.1,0.3,0.2,0.7,0.2,1.1v5.6h-1.6V53.6z M105.2,51c-0.2,0-0.3,0-0.4,0c-0.4,0-0.7,0.1-0.9,0.2c-0.3,0.2-0.4,0.5-0.4,0.9
			c0,0.3,0.1,0.6,0.2,0.8c0.1,0.2,0.4,0.3,0.6,0.3c0.3,0,0.5-0.1,0.6-0.3c0.2-0.2,0.2-0.4,0.2-0.8V51z"/>
		<path fill="#E86F30" d="M111,48.6c0-0.3-0.1-0.5-0.3-0.6c-0.2-0.1-0.4-0.2-0.6-0.2c-0.3,0-0.5,0.1-0.6,0.2s-0.2,0.4-0.2,0.6
			c0,0.1,0,0.3,0.1,0.4s0.3,0.3,0.6,0.4l1,0.4c0.6,0.2,1,0.6,1.3,1c0.2,0.4,0.3,0.8,0.3,1.3c0,0.3-0.1,0.7-0.2,1s-0.3,0.6-0.5,0.8
			s-0.5,0.4-0.8,0.5c-0.3,0.1-0.6,0.2-1,0.2c-0.3,0-0.6-0.1-0.9-0.2c-0.3-0.1-0.5-0.3-0.8-0.5c-0.2-0.2-0.4-0.5-0.5-0.8
			c-0.1-0.3-0.2-0.7-0.2-1.1h1.5c0,0.2,0.1,0.4,0.2,0.6s0.3,0.3,0.6,0.3c0.2,0,0.4-0.1,0.6-0.2c0.2-0.2,0.3-0.4,0.3-0.6
			c0-0.2-0.1-0.4-0.2-0.6c-0.1-0.2-0.3-0.3-0.6-0.4l-0.8-0.3c-0.5-0.2-0.9-0.5-1.2-0.9c-0.3-0.4-0.4-0.8-0.4-1.4
			c0-0.3,0.1-0.7,0.2-1c0.1-0.3,0.3-0.5,0.5-0.8s0.5-0.4,0.8-0.5c0.3-0.1,0.6-0.2,0.9-0.2s0.6,0.1,0.9,0.2c0.3,0.1,0.5,0.3,0.7,0.5
			c0.2,0.2,0.4,0.5,0.5,0.8c0.1,0.3,0.2,0.6,0.2,0.9H111z"/>
		<path fill="#E86F30" d="M113.7,43.9h1.6v2.5h1v1.3h-1v4.5c0,0.2,0,0.3,0.1,0.4c0,0.1,0.1,0.2,0.2,0.2s0.2,0.1,0.3,0.1s0.3,0,0.5,0
			v1.5h-0.7c-0.4,0-0.7-0.1-0.9-0.2c-0.3-0.1-0.5-0.3-0.6-0.4c-0.1-0.2-0.3-0.4-0.3-0.6c-0.1-0.2-0.1-0.5-0.1-0.7v-4.9h-0.8v-1.3
			h0.8V43.9z"/>
		<path fill="#E86F30" d="M118.4,51v1.1c0,0.3,0.1,0.5,0.2,0.6c0.1,0.1,0.3,0.2,0.6,0.2c0.3,0,0.5-0.1,0.6-0.3
			c0.1-0.2,0.2-0.4,0.2-0.5h1.6c0,0.3-0.1,0.7-0.2,1c-0.1,0.3-0.3,0.6-0.5,0.8c-0.2,0.2-0.5,0.4-0.8,0.5c-0.3,0.1-0.6,0.2-1,0.2
			c-0.5,0-0.9-0.1-1.3-0.3c-0.4-0.2-0.6-0.5-0.8-0.8c-0.1-0.2-0.2-0.5-0.2-0.7c0-0.3-0.1-0.6-0.1-0.9v-2.7c0-0.3,0-0.6,0.1-0.9
			c0-0.3,0.1-0.5,0.2-0.7c0.2-0.4,0.5-0.6,0.8-0.8c0.4-0.2,0.8-0.3,1.3-0.3c0.4,0,0.7,0.1,1,0.2c0.3,0.1,0.6,0.3,0.8,0.5
			s0.4,0.5,0.5,0.8c0.1,0.3,0.2,0.6,0.2,1V51H118.4z M118.4,49.7h1.6v-0.9c0-0.3-0.1-0.5-0.2-0.7c-0.1-0.2-0.3-0.2-0.6-0.2
			c-0.2,0-0.4,0.1-0.6,0.2c-0.1,0.2-0.2,0.4-0.2,0.7V49.7z"/>
		<path fill="#E86F30" d="M122.9,46.4h1.6v0.9c0.3-0.3,0.7-0.5,1-0.7c0.3-0.2,0.7-0.3,1.2-0.3V48c-0.2-0.1-0.3-0.1-0.5-0.1
			c-0.2,0-0.4,0-0.6,0.1c-0.2,0.1-0.4,0.2-0.5,0.3c-0.2,0.1-0.3,0.3-0.4,0.5s-0.2,0.5-0.2,0.8v4.8h-1.6V46.4z"/>
		<path fill="#E86F30" d="M127.3,46.4h1.6v0.8h0c0.2-0.3,0.4-0.5,0.6-0.6c0.2-0.2,0.5-0.2,0.9-0.2c0.2,0,0.4,0,0.6,0.1
			s0.4,0.2,0.5,0.3c0.2,0.2,0.3,0.4,0.4,0.6c0.1,0.3,0.1,0.6,0.1,0.9v6.2h-1.6v-5.6c0-0.3-0.1-0.5-0.2-0.7c-0.1-0.2-0.3-0.3-0.6-0.3
			c-0.3,0-0.5,0.1-0.6,0.3c-0.1,0.2-0.2,0.5-0.2,0.8v5.5h-1.6V46.4z"/>
		<path fill="#E86F30" d="M141.8,51.9c0,0.4-0.1,0.7-0.2,1c-0.1,0.3-0.3,0.6-0.6,0.8c-0.2,0.2-0.5,0.4-0.8,0.6
			c-0.3,0.1-0.7,0.2-1,0.2c-0.3,0-0.6,0-0.9-0.1c-0.3-0.1-0.6-0.2-0.9-0.4c-0.3-0.2-0.5-0.5-0.6-0.8s-0.2-0.8-0.2-1.3v-6.3
			c0-0.4,0.1-0.7,0.2-1c0.1-0.3,0.3-0.6,0.5-0.8c0.2-0.2,0.5-0.4,0.8-0.6c0.3-0.1,0.7-0.2,1.1-0.2c0.4,0,0.7,0.1,1,0.2
			c0.3,0.1,0.6,0.3,0.8,0.6c0.2,0.2,0.4,0.5,0.6,0.9c0.1,0.3,0.2,0.7,0.2,1.1v0.6h-1.6v-0.5c0-0.3-0.1-0.6-0.3-0.8
			c-0.2-0.2-0.4-0.4-0.7-0.4c-0.4,0-0.7,0.1-0.8,0.4s-0.2,0.6-0.2,1v5.8c0,0.3,0.1,0.6,0.2,0.8s0.4,0.3,0.8,0.3c0.1,0,0.2,0,0.3-0.1
			c0.1,0,0.2-0.1,0.3-0.2c0.1-0.1,0.2-0.2,0.2-0.4s0.1-0.3,0.1-0.6v-0.6h1.6V51.9z"/>
		<path fill="#E86F30" d="M142.9,49.1c0-0.3,0-0.6,0.1-0.9c0-0.3,0.1-0.5,0.2-0.7c0.2-0.4,0.5-0.6,0.8-0.8c0.4-0.2,0.8-0.3,1.3-0.3
			s0.9,0.1,1.3,0.3c0.4,0.2,0.6,0.5,0.8,0.8c0.1,0.2,0.2,0.5,0.2,0.7c0,0.3,0.1,0.6,0.1,0.9v2.7c0,0.3,0,0.6-0.1,0.9
			c0,0.3-0.1,0.5-0.2,0.7c-0.2,0.4-0.5,0.6-0.8,0.8c-0.4,0.2-0.8,0.3-1.3,0.3s-0.9-0.1-1.3-0.3c-0.4-0.2-0.6-0.5-0.8-0.8
			c-0.1-0.2-0.2-0.5-0.2-0.7c0-0.3-0.1-0.6-0.1-0.9V49.1z M144.5,52c0,0.3,0.1,0.5,0.2,0.7c0.1,0.2,0.3,0.2,0.6,0.2
			c0.2,0,0.4-0.1,0.6-0.2c0.1-0.2,0.2-0.4,0.2-0.7v-3.2c0-0.3-0.1-0.5-0.2-0.7c-0.1-0.2-0.3-0.2-0.6-0.2c-0.2,0-0.4,0.1-0.6,0.2
			c-0.1,0.2-0.2,0.4-0.2,0.7V52z"/>
		<path fill="#E86F30" d="M148.9,46.4h1.6v0.8h0c0.2-0.3,0.4-0.5,0.6-0.6c0.2-0.2,0.5-0.2,0.9-0.2c0.2,0,0.4,0,0.6,0.1
			s0.4,0.2,0.5,0.3c0.2,0.2,0.3,0.4,0.4,0.6c0.1,0.3,0.1,0.6,0.1,0.9v6.2h-1.6v-5.6c0-0.3-0.1-0.5-0.2-0.7c-0.1-0.2-0.3-0.3-0.6-0.3
			c-0.3,0-0.5,0.1-0.6,0.3c-0.1,0.2-0.2,0.5-0.2,0.8v5.5h-1.6V46.4z"/>
		<path fill="#E86F30" d="M155.4,47.6h-0.8v-1.3h0.8v-1.1c0-0.4,0.1-0.7,0.2-1c0.1-0.3,0.3-0.5,0.5-0.7c0.2-0.2,0.4-0.3,0.7-0.4
			c0.3-0.1,0.5-0.1,0.8-0.1h0.8v1.5h-0.7c-0.3,0-0.5,0.2-0.5,0.6v1.2h1.2v1.3H157v6.8h-1.6V47.6z"/>
		<path fill="#E86F30" d="M160.2,51v1.1c0,0.3,0.1,0.5,0.2,0.6c0.1,0.1,0.3,0.2,0.6,0.2c0.3,0,0.5-0.1,0.6-0.3
			c0.1-0.2,0.2-0.4,0.2-0.5h1.6c0,0.3-0.1,0.7-0.2,1c-0.1,0.3-0.3,0.6-0.5,0.8c-0.2,0.2-0.5,0.4-0.8,0.5c-0.3,0.1-0.6,0.2-1,0.2
			c-0.5,0-0.9-0.1-1.3-0.3c-0.4-0.2-0.6-0.5-0.8-0.8c-0.1-0.2-0.2-0.5-0.2-0.7c0-0.3-0.1-0.6-0.1-0.9v-2.7c0-0.3,0-0.6,0.1-0.9
			c0-0.3,0.1-0.5,0.2-0.7c0.2-0.4,0.5-0.6,0.8-0.8c0.4-0.2,0.8-0.3,1.3-0.3c0.4,0,0.7,0.1,1,0.2c0.3,0.1,0.6,0.3,0.8,0.5
			s0.4,0.5,0.5,0.8c0.1,0.3,0.2,0.6,0.2,1V51H160.2z M160.2,49.7h1.6v-0.9c0-0.3-0.1-0.5-0.2-0.7c-0.1-0.2-0.3-0.2-0.6-0.2
			c-0.2,0-0.4,0.1-0.6,0.2c-0.1,0.2-0.2,0.4-0.2,0.7V49.7z"/>
		<path fill="#E86F30" d="M164.6,46.4h1.6v0.9c0.3-0.3,0.7-0.5,1-0.7c0.3-0.2,0.7-0.3,1.2-0.3V48c-0.2-0.1-0.3-0.1-0.5-0.1
			c-0.2,0-0.4,0-0.6,0.1c-0.2,0.1-0.4,0.2-0.5,0.3c-0.2,0.1-0.3,0.3-0.4,0.5s-0.2,0.5-0.2,0.8v4.8h-1.6V46.4z"/>
		<path fill="#E86F30" d="M170.6,51v1.1c0,0.3,0.1,0.5,0.2,0.6c0.1,0.1,0.3,0.2,0.6,0.2c0.3,0,0.5-0.1,0.6-0.3
			c0.1-0.2,0.2-0.4,0.2-0.5h1.6c0,0.3-0.1,0.7-0.2,1c-0.1,0.3-0.3,0.6-0.5,0.8c-0.2,0.2-0.5,0.4-0.8,0.5c-0.3,0.1-0.6,0.2-1,0.2
			c-0.5,0-0.9-0.1-1.3-0.3c-0.4-0.2-0.6-0.5-0.8-0.8c-0.1-0.2-0.2-0.5-0.2-0.7c0-0.3-0.1-0.6-0.1-0.9v-2.7c0-0.3,0-0.6,0.1-0.9
			c0-0.3,0.1-0.5,0.2-0.7c0.2-0.4,0.5-0.6,0.8-0.8c0.4-0.2,0.8-0.3,1.3-0.3c0.4,0,0.7,0.1,1,0.2c0.3,0.1,0.6,0.3,0.8,0.5
			s0.4,0.5,0.5,0.8c0.1,0.3,0.2,0.6,0.2,1V51H170.6z M170.6,49.7h1.6v-0.9c0-0.3-0.1-0.5-0.2-0.7c-0.1-0.2-0.3-0.2-0.6-0.2
			c-0.2,0-0.4,0.1-0.6,0.2c-0.1,0.2-0.2,0.4-0.2,0.7V49.7z"/>
		<path fill="#E86F30" d="M175,46.4h1.6v0.8h0c0.2-0.3,0.4-0.5,0.6-0.6c0.2-0.2,0.5-0.2,0.9-0.2c0.2,0,0.4,0,0.6,0.1
			c0.2,0.1,0.4,0.2,0.5,0.3c0.2,0.2,0.3,0.4,0.4,0.6c0.1,0.3,0.1,0.6,0.1,0.9v6.2h-1.6v-5.6c0-0.3-0.1-0.5-0.2-0.7
			c-0.1-0.2-0.3-0.3-0.6-0.3c-0.3,0-0.5,0.1-0.6,0.3c-0.1,0.2-0.2,0.5-0.2,0.8v5.5H175V46.4z"/>
		<path fill="#E86F30" d="M183,52.1c0,0.3,0.1,0.5,0.2,0.6c0.1,0.1,0.3,0.2,0.6,0.2c0.3,0,0.5-0.1,0.6-0.3c0.1-0.2,0.2-0.4,0.2-0.5
			h1.6c0,0.3-0.1,0.7-0.2,1c-0.1,0.3-0.3,0.6-0.5,0.8c-0.2,0.2-0.5,0.4-0.8,0.5c-0.3,0.1-0.6,0.2-1,0.2c-0.5,0-0.9-0.1-1.3-0.3
			c-0.4-0.2-0.6-0.5-0.8-0.8c-0.1-0.2-0.2-0.5-0.2-0.7c0-0.3-0.1-0.6-0.1-0.9v-2.7c0-0.3,0-0.6,0.1-0.9c0-0.3,0.1-0.5,0.2-0.7
			c0.2-0.4,0.5-0.6,0.8-0.8c0.4-0.2,0.8-0.3,1.3-0.3c0.4,0,0.7,0.1,1,0.2s0.6,0.3,0.8,0.5s0.4,0.5,0.5,0.8c0.1,0.3,0.2,0.7,0.2,1
			h-1.6c0-0.3-0.1-0.6-0.2-0.7c-0.1-0.2-0.3-0.2-0.6-0.2c-0.2,0-0.4,0.1-0.6,0.2c-0.1,0.2-0.2,0.4-0.2,0.7V52.1z"/>
		<path fill="#E86F30" d="M188.6,51v1.1c0,0.3,0.1,0.5,0.2,0.6c0.1,0.1,0.3,0.2,0.6,0.2c0.3,0,0.5-0.1,0.6-0.3
			c0.1-0.2,0.2-0.4,0.2-0.5h1.6c0,0.3-0.1,0.7-0.2,1c-0.1,0.3-0.3,0.6-0.5,0.8c-0.2,0.2-0.5,0.4-0.8,0.5c-0.3,0.1-0.6,0.2-1,0.2
			c-0.5,0-0.9-0.1-1.3-0.3c-0.4-0.2-0.6-0.5-0.8-0.8c-0.1-0.2-0.2-0.5-0.2-0.7c0-0.3-0.1-0.6-0.1-0.9v-2.7c0-0.3,0-0.6,0.1-0.9
			c0-0.3,0.1-0.5,0.2-0.7c0.2-0.4,0.5-0.6,0.8-0.8c0.4-0.2,0.8-0.3,1.3-0.3c0.4,0,0.7,0.1,1,0.2c0.3,0.1,0.6,0.3,0.8,0.5
			s0.4,0.5,0.5,0.8c0.1,0.3,0.2,0.6,0.2,1V51H188.6z M188.6,49.7h1.6v-0.9c0-0.3-0.1-0.5-0.2-0.7c-0.1-0.2-0.3-0.2-0.6-0.2
			s-0.4,0.1-0.6,0.2c-0.1,0.2-0.2,0.4-0.2,0.7V49.7z"/>
		<path fill="#E86F30" d="M95.5,56.1v-0.8h96.9v0.8H95.5z"/>
	</g>
</g>
<g id="Western">
	<g id="Blake">
		<g>
			<path fill="#0460A7" d="M204.9,74.2h2.1c0.5,0,0.8,0.1,1.2,0.2c0.3,0.1,0.6,0.3,0.8,0.6c0.2,0.2,0.4,0.5,0.4,0.8
				c0.1,0.3,0.1,0.6,0.1,0.9v0.4c0,0.3,0,0.5-0.1,0.7c0,0.2-0.1,0.4-0.2,0.5c-0.1,0.1-0.2,0.3-0.3,0.4c-0.1,0.1-0.3,0.2-0.4,0.3
				c0.3,0.2,0.6,0.4,0.7,0.7c0.2,0.3,0.2,0.7,0.2,1.3v0.6c0,0.9-0.2,1.5-0.6,2c-0.4,0.5-1.1,0.7-2,0.7h-1.9V74.2z M206.4,78.3h0.6
				c0.5,0,0.8-0.1,1-0.4c0.2-0.2,0.2-0.6,0.2-1c0-0.4-0.1-0.8-0.3-1c-0.2-0.2-0.5-0.3-1-0.3h-0.6V78.3z M206.4,82.8h0.6
				c0.3,0,0.5,0,0.7-0.1c0.2-0.1,0.3-0.2,0.4-0.3s0.1-0.3,0.2-0.5c0-0.2,0-0.4,0-0.7c0-0.3,0-0.5,0-0.7c0-0.2-0.1-0.3-0.2-0.5
				c-0.1-0.1-0.2-0.2-0.4-0.3c-0.2-0.1-0.4-0.1-0.6-0.1h-0.6V82.8z"/>
			<path fill="#0460A7" d="M210.7,74.2h1.4v8c0,0.3,0,0.5,0.1,0.6c0.1,0.1,0.3,0.2,0.6,0.2v1.3c-0.3,0-0.6,0-0.9-0.1
				c-0.3-0.1-0.5-0.1-0.7-0.3c-0.2-0.1-0.3-0.3-0.4-0.6c-0.1-0.3-0.1-0.6-0.1-1V74.2z"/>
			<path fill="#0460A7" d="M216.1,83.5L216.1,83.5c-0.2,0.3-0.4,0.5-0.6,0.6c-0.2,0.1-0.5,0.2-0.8,0.2c-0.2,0-0.3,0-0.5-0.1
				c-0.2-0.1-0.3-0.1-0.5-0.3s-0.3-0.3-0.4-0.6c-0.1-0.2-0.1-0.6-0.1-1c0-0.4,0-0.8,0.1-1.1s0.2-0.6,0.4-0.8
				c0.2-0.2,0.4-0.4,0.7-0.4c0.3-0.1,0.7-0.1,1.1-0.1c0.1,0,0.2,0,0.3,0c0.1,0,0.2,0,0.4,0v-0.7c0-0.2-0.1-0.4-0.2-0.6
				s-0.3-0.2-0.6-0.2c-0.2,0-0.4,0.1-0.5,0.2c-0.2,0.1-0.3,0.3-0.3,0.5h-1.4c0-0.6,0.3-1.2,0.6-1.5c0.2-0.2,0.4-0.3,0.7-0.4
				c0.3-0.1,0.6-0.2,0.9-0.2c0.3,0,0.6,0,0.8,0.1c0.3,0.1,0.5,0.2,0.7,0.4c0.2,0.2,0.3,0.4,0.5,0.7c0.1,0.3,0.2,0.6,0.2,1v4.9h-1.4
				V83.5z M216.1,81.1c-0.2,0-0.3,0-0.4,0c-0.3,0-0.6,0.1-0.8,0.2c-0.2,0.1-0.3,0.4-0.3,0.8c0,0.3,0.1,0.5,0.2,0.7
				c0.1,0.2,0.3,0.3,0.5,0.3c0.2,0,0.4-0.1,0.6-0.2s0.2-0.4,0.2-0.7V81.1z"/>
			<path fill="#0460A7" d="M218.6,74.2h1.4v6h0l1.7-3.1h1.4l-1.7,2.9l2,4.2H222l-1.3-3.1l-0.7,1.1v2h-1.4V74.2z"/>
			<path fill="#0460A7" d="M225.2,81.2v1c0,0.2,0.1,0.4,0.2,0.5s0.3,0.2,0.5,0.2c0.3,0,0.5-0.1,0.5-0.2s0.1-0.3,0.2-0.5h1.4
				c0,0.3,0,0.6-0.1,0.8c-0.1,0.3-0.2,0.5-0.4,0.7c-0.2,0.2-0.4,0.4-0.7,0.5c-0.3,0.1-0.6,0.2-0.9,0.2c-0.4,0-0.8-0.1-1.1-0.3
				c-0.3-0.2-0.6-0.4-0.7-0.7c-0.1-0.2-0.2-0.4-0.2-0.6c0-0.2-0.1-0.5-0.1-0.8v-2.3c0-0.3,0-0.6,0.1-0.8c0-0.2,0.1-0.5,0.2-0.6
				c0.2-0.3,0.4-0.6,0.7-0.7s0.7-0.3,1.1-0.3c0.3,0,0.6,0.1,0.9,0.2c0.3,0.1,0.5,0.3,0.7,0.5c0.2,0.2,0.3,0.4,0.4,0.7
				c0.1,0.3,0.1,0.6,0.1,0.9v2H225.2z M225.2,80.1h1.4v-0.8c0-0.3-0.1-0.5-0.2-0.6s-0.3-0.2-0.5-0.2s-0.4,0.1-0.5,0.2
				s-0.2,0.3-0.2,0.6V80.1z"/>
			<path fill="#0460A7" d="M231.7,76.6c0-0.4,0.1-0.8,0.2-1.1c0.1-0.3,0.3-0.6,0.6-0.8c0.2-0.2,0.5-0.4,0.8-0.5
				c0.3-0.1,0.6-0.2,0.9-0.2c0.3,0,0.6,0.1,0.9,0.2c0.3,0.1,0.5,0.3,0.8,0.5c0.2,0.2,0.4,0.5,0.6,0.8c0.1,0.3,0.2,0.7,0.2,1.1v0.5
				H235v-0.5c0-0.3-0.1-0.6-0.3-0.8s-0.4-0.2-0.7-0.2c-0.3,0-0.5,0.1-0.7,0.2s-0.3,0.4-0.3,0.8v5.3c0,0.3,0.1,0.6,0.3,0.8
				s0.4,0.2,0.7,0.2c0.3,0,0.5-0.1,0.7-0.2s0.3-0.4,0.3-0.8V80h-1.1v-1.3h2.6v3.1c0,0.4-0.1,0.8-0.2,1.1s-0.3,0.6-0.6,0.8
				c-0.2,0.2-0.5,0.4-0.8,0.5c-0.3,0.1-0.6,0.2-0.9,0.2c-0.3,0-0.6-0.1-0.9-0.2c-0.3-0.1-0.5-0.3-0.8-0.5c-0.2-0.2-0.4-0.5-0.6-0.8
				c-0.1-0.3-0.2-0.7-0.2-1.1V76.6z"/>
			<path fill="#0460A7" d="M237.6,77.1h1.4v0.8c0.3-0.3,0.6-0.5,0.9-0.6s0.6-0.2,1-0.2v1.5c-0.1-0.1-0.3-0.1-0.4-0.1s-0.3,0-0.5,0.1
				c-0.2,0.1-0.3,0.1-0.5,0.3c-0.1,0.1-0.3,0.3-0.4,0.5c-0.1,0.2-0.1,0.4-0.1,0.7v4.2h-1.4V77.1z"/>
			<path fill="#0460A7" d="M241.5,74.2h1.4v1.4h-1.4V74.2z M241.5,77.1h1.4v7.1h-1.4V77.1z"/>
			<path fill="#0460A7" d="M244.3,78.2h-0.7v-1.1h0.7v-1c0-0.3,0.1-0.6,0.2-0.9s0.2-0.4,0.4-0.6c0.2-0.2,0.4-0.3,0.6-0.3
				c0.2-0.1,0.4-0.1,0.7-0.1h0.7v1.3h-0.6c-0.3,0-0.4,0.2-0.4,0.5v1h1.1v1.1h-1.1v6h-1.4V78.2z"/>
			<path fill="#0460A7" d="M247.4,78.2h-0.7v-1.1h0.7v-1c0-0.3,0.1-0.6,0.2-0.9s0.2-0.4,0.4-0.6c0.2-0.2,0.4-0.3,0.6-0.3
				c0.2-0.1,0.4-0.1,0.7-0.1h0.7v1.3h-0.6c-0.3,0-0.4,0.2-0.4,0.5v1h1.1v1.1h-1.1v6h-1.4V78.2z"/>
			<path fill="#0460A7" d="M250.3,74.2h1.4v1.4h-1.4V74.2z M250.3,77.1h1.4v7.1h-1.4V77.1z"/>
			<path fill="#0460A7" d="M252.9,77.1h1.4v0.7h0c0.1-0.2,0.3-0.4,0.5-0.6s0.5-0.2,0.8-0.2c0.2,0,0.4,0,0.5,0.1s0.3,0.2,0.5,0.3
				c0.1,0.1,0.3,0.3,0.3,0.5s0.1,0.5,0.1,0.8v5.4h-1.4v-4.9c0-0.3-0.1-0.5-0.2-0.6s-0.3-0.2-0.5-0.2c-0.3,0-0.5,0.1-0.6,0.3
				s-0.2,0.4-0.2,0.7v4.8h-1.4V77.1z"/>
		</g>
	</g>
	<g id="Marc">
		<g>
			<path fill="#0460A7" d="M204.9,112h1.4l1.8,5.3h0l1.8-5.3h1.4v10h-1.4V116h0l-1.4,4.3h-0.7l-1.4-4.3h0v6.1h-1.4V112z"/>
			<path fill="#0460A7" d="M215.3,121.3L215.3,121.3c-0.2,0.3-0.4,0.5-0.6,0.6c-0.2,0.1-0.5,0.2-0.8,0.2c-0.2,0-0.3,0-0.5-0.1
				c-0.2-0.1-0.3-0.1-0.5-0.3s-0.3-0.3-0.4-0.6c-0.1-0.2-0.1-0.6-0.1-1c0-0.4,0-0.8,0.1-1.1s0.2-0.6,0.4-0.8
				c0.2-0.2,0.4-0.4,0.7-0.4c0.3-0.1,0.7-0.1,1.1-0.1c0.1,0,0.2,0,0.3,0c0.1,0,0.2,0,0.4,0v-0.7c0-0.2-0.1-0.4-0.2-0.6
				s-0.3-0.2-0.6-0.2c-0.2,0-0.4,0.1-0.5,0.2c-0.2,0.1-0.3,0.3-0.3,0.5h-1.4c0-0.6,0.3-1.2,0.6-1.5c0.2-0.2,0.4-0.3,0.7-0.4
				c0.3-0.1,0.6-0.2,0.9-0.2c0.3,0,0.6,0,0.8,0.1c0.3,0.1,0.5,0.2,0.7,0.4c0.2,0.2,0.3,0.4,0.5,0.7c0.1,0.3,0.2,0.6,0.2,1v4.9h-1.4
				V121.3z M215.3,119c-0.2,0-0.3,0-0.4,0c-0.3,0-0.6,0.1-0.8,0.2c-0.2,0.1-0.3,0.4-0.3,0.8c0,0.3,0.1,0.5,0.2,0.7
				c0.1,0.2,0.3,0.3,0.5,0.3c0.2,0,0.4-0.1,0.6-0.2s0.2-0.4,0.2-0.7V119z"/>
			<path fill="#0460A7" d="M217.8,114.9h1.4v0.8c0.3-0.3,0.6-0.5,0.9-0.6s0.6-0.2,1-0.2v1.5c-0.1-0.1-0.3-0.1-0.4-0.1
				s-0.3,0-0.5,0.1c-0.2,0.1-0.3,0.1-0.5,0.3c-0.1,0.1-0.3,0.3-0.4,0.5c-0.1,0.2-0.1,0.4-0.1,0.7v4.2h-1.4V114.9z"/>
			<path fill="#0460A7" d="M223,120c0,0.2,0.1,0.4,0.2,0.5s0.3,0.2,0.5,0.2c0.3,0,0.5-0.1,0.5-0.2s0.1-0.3,0.2-0.5h1.4
				c0,0.3,0,0.6-0.1,0.8c-0.1,0.3-0.2,0.5-0.4,0.7c-0.2,0.2-0.4,0.4-0.7,0.5c-0.3,0.1-0.6,0.2-0.9,0.2c-0.4,0-0.8-0.1-1.1-0.3
				c-0.3-0.2-0.6-0.4-0.7-0.7c-0.1-0.2-0.2-0.4-0.2-0.6c0-0.2-0.1-0.5-0.1-0.8v-2.3c0-0.3,0-0.6,0.1-0.8c0-0.2,0.1-0.5,0.2-0.6
				c0.2-0.3,0.4-0.6,0.7-0.7s0.7-0.3,1.1-0.3c0.3,0,0.6,0.1,0.9,0.2c0.3,0.1,0.5,0.3,0.7,0.5c0.2,0.2,0.3,0.4,0.4,0.7
				c0.1,0.3,0.1,0.6,0.1,0.9h-1.4c0-0.3-0.1-0.5-0.2-0.6s-0.3-0.2-0.5-0.2s-0.4,0.1-0.5,0.2s-0.2,0.3-0.2,0.6V120z"/>
			<path fill="#0460A7" d="M229.3,114.4c0-0.4,0.1-0.8,0.2-1.1c0.1-0.3,0.3-0.6,0.6-0.8c0.2-0.2,0.5-0.4,0.8-0.5
				c0.3-0.1,0.6-0.2,0.9-0.2c0.3,0,0.6,0.1,0.9,0.2c0.3,0.1,0.5,0.3,0.8,0.5c0.2,0.2,0.4,0.5,0.6,0.8c0.1,0.3,0.2,0.7,0.2,1.1v0.5
				h-1.4v-0.5c0-0.3-0.1-0.6-0.3-0.8s-0.4-0.2-0.7-0.2c-0.3,0-0.5,0.1-0.7,0.2s-0.3,0.4-0.3,0.8v5.3c0,0.3,0.1,0.6,0.3,0.8
				s0.4,0.2,0.7,0.2c0.3,0,0.5-0.1,0.7-0.2s0.3-0.4,0.3-0.8v-1.9h-1.1v-1.3h2.6v3.1c0,0.4-0.1,0.8-0.2,1.1s-0.3,0.6-0.6,0.8
				c-0.2,0.2-0.5,0.4-0.8,0.5c-0.3,0.1-0.6,0.2-0.9,0.2c-0.3,0-0.6-0.1-0.9-0.2c-0.3-0.1-0.5-0.3-0.8-0.5c-0.2-0.2-0.4-0.5-0.6-0.8
				c-0.1-0.3-0.2-0.7-0.2-1.1V114.4z"/>
			<path fill="#0460A7" d="M238,121.3L238,121.3c-0.2,0.3-0.4,0.5-0.6,0.6c-0.2,0.1-0.5,0.2-0.8,0.2c-0.2,0-0.3,0-0.5-0.1
				c-0.2-0.1-0.3-0.1-0.5-0.3s-0.3-0.3-0.4-0.6c-0.1-0.2-0.1-0.6-0.1-1c0-0.4,0-0.8,0.1-1.1s0.2-0.6,0.4-0.8
				c0.2-0.2,0.4-0.4,0.7-0.4c0.3-0.1,0.7-0.1,1.1-0.1c0.1,0,0.2,0,0.3,0c0.1,0,0.2,0,0.4,0v-0.7c0-0.2-0.1-0.4-0.2-0.6
				s-0.3-0.2-0.6-0.2c-0.2,0-0.4,0.1-0.5,0.2c-0.2,0.1-0.3,0.3-0.3,0.5h-1.4c0-0.6,0.3-1.2,0.6-1.5c0.2-0.2,0.4-0.3,0.7-0.4
				c0.3-0.1,0.6-0.2,0.9-0.2c0.3,0,0.6,0,0.8,0.1c0.3,0.1,0.5,0.2,0.7,0.4c0.2,0.2,0.3,0.4,0.5,0.7c0.1,0.3,0.2,0.6,0.2,1v4.9H238
				V121.3z M238,119c-0.2,0-0.3,0-0.4,0c-0.3,0-0.6,0.1-0.8,0.2c-0.2,0.1-0.3,0.4-0.3,0.8c0,0.3,0.1,0.5,0.2,0.7
				c0.1,0.2,0.3,0.3,0.5,0.3c0.2,0,0.4-0.1,0.6-0.2s0.2-0.4,0.2-0.7V119z"/>
			<path fill="#0460A7" d="M243,116.9c0-0.2-0.1-0.4-0.2-0.5c-0.1-0.1-0.3-0.2-0.5-0.2c-0.2,0-0.4,0.1-0.5,0.2
				c-0.1,0.1-0.2,0.3-0.2,0.5c0,0.1,0,0.3,0.1,0.4c0.1,0.1,0.2,0.2,0.5,0.3l0.8,0.3c0.5,0.2,0.9,0.5,1.1,0.8
				c0.2,0.4,0.3,0.7,0.3,1.2c0,0.3-0.1,0.6-0.2,0.8c-0.1,0.3-0.3,0.5-0.4,0.7c-0.2,0.2-0.4,0.4-0.7,0.5c-0.3,0.1-0.5,0.2-0.9,0.2
				c-0.3,0-0.5,0-0.8-0.1s-0.5-0.2-0.7-0.4s-0.3-0.4-0.5-0.7c-0.1-0.3-0.2-0.6-0.2-0.9h1.3c0,0.2,0.1,0.4,0.2,0.5s0.3,0.3,0.6,0.3
				c0.2,0,0.4-0.1,0.6-0.2s0.2-0.3,0.2-0.6c0-0.2-0.1-0.4-0.2-0.5c-0.1-0.1-0.3-0.3-0.6-0.4l-0.7-0.3c-0.4-0.2-0.8-0.4-1.1-0.7
				c-0.3-0.3-0.4-0.7-0.4-1.2c0-0.3,0.1-0.6,0.2-0.8c0.1-0.3,0.3-0.5,0.5-0.7c0.2-0.2,0.4-0.3,0.7-0.4s0.5-0.2,0.8-0.2
				s0.6,0.1,0.8,0.2c0.2,0.1,0.5,0.3,0.6,0.4c0.2,0.2,0.3,0.4,0.4,0.7c0.1,0.3,0.2,0.5,0.2,0.8H243z"/>
			<path fill="#0460A7" d="M245.3,117.3c0-0.3,0-0.6,0.1-0.8c0-0.2,0.1-0.5,0.2-0.6c0.2-0.3,0.4-0.6,0.7-0.7s0.7-0.3,1.1-0.3
				s0.8,0.1,1.1,0.3s0.6,0.4,0.7,0.7c0.1,0.2,0.2,0.4,0.2,0.6c0,0.2,0.1,0.5,0.1,0.8v2.3c0,0.3,0,0.6-0.1,0.8s-0.1,0.5-0.2,0.6
				c-0.2,0.3-0.4,0.6-0.7,0.7c-0.3,0.2-0.7,0.3-1.1,0.3s-0.8-0.1-1.1-0.3c-0.3-0.2-0.6-0.4-0.7-0.7c-0.1-0.2-0.2-0.4-0.2-0.6
				c0-0.2-0.1-0.5-0.1-0.8V117.3z M246.7,119.9c0,0.3,0.1,0.5,0.2,0.6s0.3,0.2,0.5,0.2s0.4-0.1,0.5-0.2s0.2-0.3,0.2-0.6v-2.8
				c0-0.3-0.1-0.5-0.2-0.6s-0.3-0.2-0.5-0.2s-0.4,0.1-0.5,0.2s-0.2,0.3-0.2,0.6V119.9z"/>
			<path fill="#0460A7" d="M250.5,112h1.4v8c0,0.3,0,0.5,0.1,0.6c0.1,0.1,0.3,0.2,0.6,0.2v1.3c-0.3,0-0.6,0-0.9-0.1
				c-0.3-0.1-0.5-0.1-0.7-0.3c-0.2-0.1-0.3-0.3-0.4-0.6c-0.1-0.3-0.1-0.6-0.1-1V112z"/>
		</g>
	</g>
	<g id="Kobe">
		<g>
			<path fill="#0460A7" d="M204.9,149.9h1.4v4.5h0l2.1-4.5h1.4l-1.9,4l2.3,6h-1.5l-1.6-4.4l-0.8,1.4v3h-1.4V149.9z"/>
			<path fill="#0460A7" d="M210.5,155.1c0-0.3,0-0.6,0.1-0.8c0-0.2,0.1-0.5,0.2-0.6c0.2-0.3,0.4-0.6,0.7-0.7s0.7-0.3,1.1-0.3
				s0.8,0.1,1.1,0.3s0.6,0.4,0.7,0.7c0.1,0.2,0.2,0.4,0.2,0.6c0,0.2,0.1,0.5,0.1,0.8v2.3c0,0.3,0,0.6-0.1,0.8s-0.1,0.5-0.2,0.6
				c-0.2,0.3-0.4,0.6-0.7,0.7c-0.3,0.2-0.7,0.3-1.1,0.3s-0.8-0.1-1.1-0.3c-0.3-0.2-0.6-0.4-0.7-0.7c-0.1-0.2-0.2-0.4-0.2-0.6
				c0-0.2-0.1-0.5-0.1-0.8V155.1z M211.9,157.7c0,0.3,0.1,0.5,0.2,0.6c0.1,0.1,0.3,0.2,0.5,0.2s0.4-0.1,0.5-0.2
				c0.1-0.1,0.2-0.3,0.2-0.6v-2.8c0-0.3-0.1-0.5-0.2-0.6c-0.1-0.1-0.3-0.2-0.5-0.2s-0.4,0.1-0.5,0.2c-0.1,0.1-0.2,0.3-0.2,0.6V157.7
				z"/>
			<path fill="#0460A7" d="M215.8,149.9h1.4v3.5h0c0.2-0.2,0.3-0.4,0.6-0.5c0.2-0.1,0.5-0.2,0.7-0.2c0.3,0,0.6,0.1,0.8,0.2
				s0.3,0.3,0.5,0.5c0.1,0.1,0.2,0.3,0.2,0.6c0,0.2,0,0.6,0,1.1v2.7c0,0.4,0,0.7-0.1,0.9s-0.1,0.4-0.2,0.6c-0.2,0.4-0.7,0.7-1.2,0.7
				c-0.4,0-0.6-0.1-0.8-0.2c-0.2-0.1-0.4-0.3-0.5-0.5v0.6h-1.4V149.9z M218.7,154.9c0-0.2,0-0.4-0.1-0.6c-0.1-0.2-0.3-0.3-0.6-0.3
				c-0.2,0-0.4,0.1-0.5,0.2c-0.1,0.1-0.2,0.3-0.2,0.6v2.8c0,0.3,0.1,0.5,0.2,0.6s0.3,0.2,0.5,0.2c0.2,0,0.4-0.1,0.5-0.3
				c0.1-0.2,0.2-0.4,0.2-0.7V154.9z"/>
			<path fill="#0460A7" d="M222.6,156.8v1c0,0.2,0.1,0.4,0.2,0.5s0.3,0.2,0.5,0.2c0.3,0,0.5-0.1,0.5-0.2c0.1-0.2,0.1-0.3,0.2-0.5
				h1.4c0,0.3,0,0.6-0.1,0.8c-0.1,0.3-0.2,0.5-0.4,0.7c-0.2,0.2-0.4,0.3-0.7,0.5c-0.3,0.1-0.6,0.2-0.9,0.2c-0.4,0-0.8-0.1-1.1-0.3
				c-0.3-0.2-0.6-0.4-0.7-0.7c-0.1-0.2-0.2-0.4-0.2-0.6c0-0.2-0.1-0.5-0.1-0.8v-2.3c0-0.3,0-0.6,0.1-0.8c0-0.2,0.1-0.5,0.2-0.6
				c0.2-0.3,0.4-0.6,0.7-0.7s0.7-0.3,1.1-0.3c0.3,0,0.6,0.1,0.9,0.2c0.3,0.1,0.5,0.3,0.7,0.5c0.2,0.2,0.3,0.4,0.4,0.7
				c0.1,0.3,0.1,0.6,0.1,0.9v2H222.6z M222.6,155.7h1.4v-0.8c0-0.3-0.1-0.5-0.2-0.6c-0.1-0.1-0.3-0.2-0.5-0.2s-0.4,0.1-0.5,0.2
				c-0.1,0.1-0.2,0.3-0.2,0.6V155.7z"/>
			<path fill="#0460A7" d="M229.1,149.9h2.1c0.5,0,0.8,0.1,1.2,0.2c0.3,0.1,0.6,0.3,0.8,0.6s0.4,0.5,0.4,0.8
				c0.1,0.3,0.1,0.6,0.1,0.9v0.4c0,0.3,0,0.5-0.1,0.7c0,0.2-0.1,0.4-0.2,0.5s-0.2,0.3-0.3,0.4c-0.1,0.1-0.3,0.2-0.4,0.3
				c0.3,0.2,0.6,0.4,0.7,0.7c0.2,0.3,0.2,0.7,0.2,1.3v0.6c0,0.9-0.2,1.5-0.6,2s-1.1,0.7-2,0.7h-1.9V149.9z M230.6,154h0.6
				c0.5,0,0.8-0.1,1-0.4s0.2-0.6,0.2-1c0-0.4-0.1-0.8-0.3-1c-0.2-0.2-0.5-0.3-1-0.3h-0.6V154z M230.6,158.4h0.6c0.3,0,0.5,0,0.7-0.1
				c0.2-0.1,0.3-0.2,0.4-0.3s0.1-0.3,0.2-0.5c0-0.2,0-0.4,0-0.7c0-0.3,0-0.5,0-0.7c0-0.2-0.1-0.3-0.2-0.5c-0.1-0.1-0.2-0.2-0.4-0.3
				c-0.2-0.1-0.4-0.1-0.6-0.1h-0.6V158.4z"/>
			<path fill="#0460A7" d="M235,152.7h1.4v0.8c0.3-0.3,0.6-0.5,0.9-0.6s0.6-0.2,1-0.2v1.5c-0.1-0.1-0.3-0.1-0.4-0.1s-0.3,0-0.5,0.1
				c-0.2,0.1-0.3,0.1-0.5,0.3s-0.3,0.3-0.4,0.5c-0.1,0.2-0.1,0.4-0.1,0.7v4.2H235V152.7z"/>
			<path fill="#0460A7" d="M240.1,152.7l1,4.4h0l1-4.4h1.5l-2,8.3c-0.1,0.3-0.2,0.6-0.3,0.8c-0.1,0.2-0.3,0.4-0.5,0.5
				c-0.2,0.1-0.4,0.2-0.6,0.3c-0.2,0.1-0.4,0.1-0.6,0.1h-0.4v-1.3h0.3c0.1,0,0.3,0,0.4-0.1s0.2-0.1,0.3-0.2c0.1-0.1,0.2-0.3,0.2-0.6
				s0.1-0.6,0.2-1l-1.9-6.8H240.1z"/>
			<path fill="#0460A7" d="M246.7,159.1L246.7,159.1c-0.2,0.3-0.4,0.5-0.6,0.6c-0.2,0.1-0.5,0.2-0.8,0.2c-0.2,0-0.3,0-0.5-0.1
				c-0.2-0.1-0.3-0.1-0.5-0.3c-0.2-0.1-0.3-0.3-0.4-0.6c-0.1-0.2-0.1-0.6-0.1-1c0-0.4,0-0.8,0.1-1.1c0.1-0.3,0.2-0.6,0.4-0.8
				s0.4-0.4,0.7-0.4s0.7-0.1,1.1-0.1c0.1,0,0.2,0,0.3,0c0.1,0,0.2,0,0.4,0v-0.7c0-0.2-0.1-0.4-0.2-0.6c-0.1-0.2-0.3-0.2-0.6-0.2
				c-0.2,0-0.4,0.1-0.5,0.2c-0.2,0.1-0.3,0.3-0.3,0.5h-1.4c0-0.6,0.3-1.2,0.6-1.5c0.2-0.2,0.4-0.3,0.7-0.4c0.3-0.1,0.6-0.2,0.9-0.2
				c0.3,0,0.6,0,0.8,0.1c0.3,0.1,0.5,0.2,0.7,0.4s0.3,0.4,0.5,0.7c0.1,0.3,0.2,0.6,0.2,1v4.9h-1.4V159.1z M246.7,156.8
				c-0.2,0-0.3,0-0.4,0c-0.3,0-0.6,0.1-0.8,0.2c-0.2,0.1-0.3,0.4-0.3,0.8c0,0.3,0.1,0.5,0.2,0.7c0.1,0.2,0.3,0.3,0.5,0.3
				c0.2,0,0.4-0.1,0.6-0.2s0.2-0.4,0.2-0.7V156.8z"/>
			<path fill="#0460A7" d="M249.2,152.7h1.4v0.7h0c0.1-0.2,0.3-0.4,0.5-0.6s0.5-0.2,0.8-0.2c0.2,0,0.4,0,0.5,0.1s0.3,0.2,0.5,0.3
				c0.1,0.1,0.3,0.3,0.3,0.5c0.1,0.2,0.1,0.5,0.1,0.8v5.4H252v-4.9c0-0.3-0.1-0.5-0.2-0.6s-0.3-0.2-0.5-0.2c-0.3,0-0.5,0.1-0.6,0.3
				s-0.2,0.4-0.2,0.7v4.8h-1.4V152.7z"/>
			<path fill="#0460A7" d="M254.6,150.6h1.4v2.2h0.9v1.1h-0.9v3.9c0,0.2,0,0.3,0,0.4c0,0.1,0.1,0.2,0.2,0.2c0.1,0,0.2,0.1,0.3,0.1
				c0.1,0,0.2,0,0.4,0v1.3h-0.6c-0.3,0-0.6-0.1-0.8-0.2c-0.2-0.1-0.4-0.2-0.5-0.4s-0.2-0.3-0.3-0.5s-0.1-0.4-0.1-0.6v-4.3h-0.7v-1.1
				h0.7V150.6z"/>
		</g>
	</g>
	<g id="Anthony">
		<g>
			<path fill="#0460A7" d="M206.5,187.7h1.2l2.2,10h-1.4l-0.4-2.1h-1.9l-0.4,2.1h-1.4L206.5,187.7z M207.1,190.6L207.1,190.6
				l-0.7,3.6h1.4L207.1,190.6z"/>
			<path fill="#0460A7" d="M210.5,190.6h1.4v0.7h0c0.1-0.2,0.3-0.4,0.5-0.6s0.5-0.2,0.8-0.2c0.2,0,0.4,0,0.5,0.1s0.3,0.2,0.5,0.3
				c0.1,0.1,0.3,0.3,0.3,0.5c0.1,0.2,0.1,0.5,0.1,0.8v5.4h-1.4v-4.9c0-0.3-0.1-0.5-0.2-0.6c-0.1-0.1-0.3-0.2-0.5-0.2
				c-0.3,0-0.5,0.1-0.6,0.3s-0.2,0.4-0.2,0.7v4.8h-1.4V190.6z"/>
			<path fill="#0460A7" d="M216,188.4h1.4v2.2h0.9v1.1h-0.9v3.9c0,0.2,0,0.3,0,0.4c0,0.1,0.1,0.2,0.2,0.2c0.1,0,0.2,0.1,0.3,0.1
				c0.1,0,0.2,0,0.4,0v1.3h-0.6c-0.3,0-0.6-0.1-0.8-0.2c-0.2-0.1-0.4-0.2-0.5-0.4s-0.2-0.3-0.3-0.5c-0.1-0.2-0.1-0.4-0.1-0.6v-4.3
				h-0.7v-1.1h0.7V188.4z"/>
			<path fill="#0460A7" d="M218.8,187.7h1.4v3.6h0c0.1-0.2,0.3-0.4,0.5-0.6s0.5-0.2,0.8-0.2c0.2,0,0.4,0,0.5,0.1s0.3,0.2,0.5,0.3
				c0.1,0.1,0.3,0.3,0.3,0.5c0.1,0.2,0.1,0.5,0.1,0.8v5.4h-1.4v-4.9c0-0.3-0.1-0.5-0.2-0.6c-0.1-0.1-0.3-0.2-0.5-0.2
				c-0.3,0-0.5,0.1-0.6,0.3s-0.2,0.4-0.2,0.7v4.8h-1.4V187.7z"/>
			<path fill="#0460A7" d="M224.2,193c0-0.3,0-0.6,0.1-0.8c0-0.2,0.1-0.5,0.2-0.6c0.2-0.3,0.4-0.6,0.7-0.7c0.3-0.2,0.7-0.3,1.1-0.3
				s0.8,0.1,1.1,0.3c0.3,0.2,0.6,0.4,0.7,0.7c0.1,0.2,0.2,0.4,0.2,0.6c0,0.2,0.1,0.5,0.1,0.8v2.3c0,0.3,0,0.6-0.1,0.8
				c0,0.2-0.1,0.5-0.2,0.6c-0.2,0.3-0.4,0.6-0.7,0.7c-0.3,0.2-0.7,0.3-1.1,0.3s-0.8-0.1-1.1-0.3c-0.3-0.2-0.6-0.4-0.7-0.7
				c-0.1-0.2-0.2-0.4-0.2-0.6c0-0.2-0.1-0.5-0.1-0.8V193z M225.6,195.5c0,0.3,0.1,0.5,0.2,0.6s0.3,0.2,0.5,0.2s0.4-0.1,0.5-0.2
				s0.2-0.3,0.2-0.6v-2.8c0-0.3-0.1-0.5-0.2-0.6c-0.1-0.1-0.3-0.2-0.5-0.2s-0.4,0.1-0.5,0.2c-0.1,0.1-0.2,0.3-0.2,0.6V195.5z"/>
			<path fill="#0460A7" d="M229.5,190.6h1.4v0.7h0c0.1-0.2,0.3-0.4,0.5-0.6s0.5-0.2,0.8-0.2c0.2,0,0.4,0,0.5,0.1s0.3,0.2,0.5,0.3
				c0.1,0.1,0.3,0.3,0.3,0.5c0.1,0.2,0.1,0.5,0.1,0.8v5.4h-1.4v-4.9c0-0.3-0.1-0.5-0.2-0.6c-0.1-0.1-0.3-0.2-0.5-0.2
				c-0.3,0-0.5,0.1-0.6,0.3s-0.2,0.4-0.2,0.7v4.8h-1.4V190.6z"/>
			<path fill="#0460A7" d="M235.8,190.6l1,4.4h0l1-4.4h1.5l-2,8.3c-0.1,0.3-0.2,0.6-0.3,0.8c-0.1,0.2-0.3,0.4-0.5,0.5
				c-0.2,0.1-0.4,0.2-0.6,0.3c-0.2,0.1-0.4,0.1-0.6,0.1h-0.4v-1.3h0.3c0.1,0,0.3,0,0.4-0.1s0.2-0.1,0.3-0.2c0.1-0.1,0.2-0.3,0.2-0.6
				s0.1-0.6,0.2-1l-1.9-6.8H235.8z"/>
			<path fill="#0460A7" d="M242.5,187.7h2.1c0.8,0,1.4,0.2,1.9,0.7c0.4,0.5,0.6,1.1,0.6,1.9v4.7c0,0.9-0.2,1.6-0.7,2.1
				c-0.5,0.4-1.1,0.7-2,0.7h-2V187.7z M244,196.3h0.7c0.4,0,0.7-0.1,0.9-0.3c0.2-0.2,0.3-0.5,0.3-0.9v-4.8c0-0.4-0.1-0.7-0.2-0.9
				c-0.2-0.2-0.4-0.3-0.9-0.3H244V196.3z"/>
			<path fill="#0460A7" d="M251.1,196.9L251.1,196.9c-0.2,0.3-0.4,0.5-0.6,0.6c-0.2,0.1-0.5,0.2-0.8,0.2c-0.2,0-0.3,0-0.5-0.1
				c-0.2-0.1-0.3-0.1-0.5-0.3c-0.2-0.1-0.3-0.3-0.4-0.6s-0.1-0.6-0.1-1c0-0.4,0-0.8,0.1-1.1c0.1-0.3,0.2-0.6,0.4-0.8
				c0.2-0.2,0.4-0.3,0.7-0.4c0.3-0.1,0.7-0.1,1.1-0.1c0.1,0,0.2,0,0.3,0c0.1,0,0.2,0,0.4,0v-0.7c0-0.2-0.1-0.4-0.2-0.6
				c-0.1-0.2-0.3-0.2-0.6-0.2c-0.2,0-0.4,0.1-0.5,0.2c-0.2,0.1-0.3,0.3-0.3,0.5h-1.4c0-0.6,0.3-1.2,0.6-1.5c0.2-0.2,0.4-0.3,0.7-0.4
				c0.3-0.1,0.6-0.2,0.9-0.2c0.3,0,0.6,0,0.8,0.1c0.3,0.1,0.5,0.2,0.7,0.4s0.3,0.4,0.5,0.7c0.1,0.3,0.2,0.6,0.2,1v4.9h-1.4V196.9z
				 M251.1,194.6c-0.2,0-0.3,0-0.4,0c-0.3,0-0.6,0.1-0.8,0.2c-0.2,0.1-0.3,0.4-0.3,0.8c0,0.3,0.1,0.5,0.2,0.7s0.3,0.3,0.5,0.3
				c0.2,0,0.4-0.1,0.6-0.2c0.1-0.2,0.2-0.4,0.2-0.7V194.6z"/>
			<path fill="#0460A7" d="M256,197.7h-1.3l-1.8-7.1h1.5l1,4.5h0l1-4.5h1.5L256,197.7z"/>
			<path fill="#0460A7" d="M258.4,187.7h1.4v1.4h-1.4V187.7z M258.4,190.6h1.4v7.1h-1.4V190.6z"/>
			<path fill="#0460A7" d="M263.6,192.6c0-0.2-0.1-0.4-0.2-0.5c-0.1-0.1-0.3-0.2-0.5-0.2c-0.2,0-0.4,0.1-0.5,0.2s-0.2,0.3-0.2,0.5
				c0,0.1,0,0.3,0.1,0.4s0.2,0.2,0.5,0.3l0.8,0.3c0.5,0.2,0.9,0.5,1.1,0.8c0.2,0.4,0.3,0.7,0.3,1.2c0,0.3-0.1,0.6-0.2,0.8
				s-0.3,0.5-0.4,0.7c-0.2,0.2-0.4,0.3-0.7,0.5c-0.3,0.1-0.5,0.2-0.9,0.2c-0.3,0-0.5,0-0.8-0.1c-0.3-0.1-0.5-0.2-0.7-0.4
				s-0.3-0.4-0.5-0.7c-0.1-0.3-0.2-0.6-0.2-0.9h1.3c0,0.2,0.1,0.4,0.2,0.5s0.3,0.3,0.6,0.3c0.2,0,0.4-0.1,0.6-0.2s0.2-0.3,0.2-0.6
				c0-0.2-0.1-0.4-0.2-0.5c-0.1-0.1-0.3-0.3-0.6-0.4l-0.7-0.3c-0.4-0.2-0.8-0.4-1.1-0.7c-0.3-0.3-0.4-0.7-0.4-1.2
				c0-0.3,0.1-0.6,0.2-0.8c0.1-0.3,0.3-0.5,0.5-0.7c0.2-0.2,0.4-0.3,0.7-0.4c0.3-0.1,0.5-0.2,0.8-0.2s0.6,0.1,0.8,0.2
				c0.2,0.1,0.5,0.3,0.6,0.4c0.2,0.2,0.3,0.4,0.4,0.7s0.2,0.5,0.2,0.8H263.6z"/>
		</g>
	</g>
	<g id="Stephen">
		<g>
			<path fill="#0460A7" d="M209.5,228.4h-1.4v-0.3c0-0.3-0.1-0.6-0.2-0.8c-0.2-0.2-0.4-0.4-0.8-0.4c-0.2,0-0.4,0-0.5,0.1
				c-0.1,0.1-0.2,0.2-0.3,0.3c-0.1,0.1-0.1,0.3-0.1,0.4c0,0.2,0,0.3,0,0.5c0,0.2,0,0.4,0,0.5s0,0.3,0.1,0.3c0.1,0.1,0.1,0.2,0.2,0.3
				c0.1,0.1,0.3,0.1,0.4,0.2l1.1,0.4c0.3,0.1,0.6,0.3,0.8,0.4c0.2,0.2,0.3,0.4,0.5,0.6c0.1,0.2,0.2,0.5,0.2,0.8c0,0.3,0.1,0.6,0.1,1
				c0,0.4,0,0.8-0.1,1.2s-0.2,0.7-0.4,0.9s-0.4,0.5-0.8,0.6c-0.3,0.1-0.7,0.2-1.2,0.2c-0.3,0-0.7-0.1-1-0.2
				c-0.3-0.1-0.6-0.3-0.8-0.5s-0.4-0.5-0.5-0.7s-0.2-0.6-0.2-0.9v-0.5h1.4v0.4c0,0.3,0.1,0.5,0.2,0.7c0.2,0.2,0.4,0.3,0.8,0.3
				c0.2,0,0.4,0,0.6-0.1c0.1-0.1,0.2-0.2,0.3-0.3s0.1-0.3,0.1-0.5s0-0.4,0-0.6c0-0.3,0-0.5,0-0.6s-0.1-0.3-0.1-0.4s-0.1-0.2-0.3-0.3
				s-0.2-0.1-0.4-0.2l-1-0.4c-0.6-0.3-1-0.6-1.2-1s-0.3-0.9-0.3-1.6c0-0.4,0.1-0.7,0.2-1.1s0.3-0.6,0.5-0.9c0.2-0.2,0.5-0.4,0.8-0.6
				s0.7-0.2,1.1-0.2c0.4,0,0.7,0.1,1,0.2c0.3,0.1,0.5,0.3,0.8,0.5s0.4,0.5,0.5,0.7c0.1,0.3,0.2,0.5,0.2,0.8V228.4z"/>
			<path fill="#0460A7" d="M210.5,226.3h1.4v2.2h0.9v1.1H212v3.9c0,0.2,0,0.3,0,0.4c0,0.1,0.1,0.2,0.2,0.2c0.1,0,0.2,0.1,0.3,0.1
				c0.1,0,0.2,0,0.4,0v1.3h-0.6c-0.3,0-0.6-0.1-0.8-0.2c-0.2-0.1-0.4-0.2-0.5-0.4s-0.2-0.3-0.3-0.5c-0.1-0.2-0.1-0.4-0.1-0.6v-4.3
				h-0.7v-1.1h0.7V226.3z"/>
			<path fill="#0460A7" d="M214.7,232.5v1c0,0.2,0.1,0.4,0.2,0.5c0.1,0.1,0.3,0.2,0.5,0.2c0.3,0,0.5-0.1,0.5-0.2
				c0.1-0.2,0.1-0.3,0.2-0.5h1.4c0,0.3,0,0.6-0.1,0.8c-0.1,0.3-0.2,0.5-0.4,0.7c-0.2,0.2-0.4,0.3-0.7,0.5c-0.3,0.1-0.6,0.2-0.9,0.2
				c-0.4,0-0.8-0.1-1.1-0.3c-0.3-0.2-0.6-0.4-0.7-0.7c-0.1-0.2-0.2-0.4-0.2-0.6c0-0.2-0.1-0.5-0.1-0.8v-2.3c0-0.3,0-0.6,0.1-0.8
				c0-0.2,0.1-0.5,0.2-0.6c0.2-0.3,0.4-0.6,0.7-0.7c0.3-0.2,0.7-0.3,1.1-0.3c0.3,0,0.6,0.1,0.9,0.2c0.3,0.1,0.5,0.3,0.7,0.5
				c0.2,0.2,0.3,0.4,0.4,0.7c0.1,0.3,0.1,0.6,0.1,0.9v2H214.7z M214.7,231.4h1.4v-0.8c0-0.3-0.1-0.5-0.2-0.6
				c-0.1-0.1-0.3-0.2-0.5-0.2s-0.4,0.1-0.5,0.2c-0.1,0.1-0.2,0.3-0.2,0.6V231.4z"/>
			<path fill="#0460A7" d="M218.6,228.4h1.4v0.6c0.2-0.2,0.4-0.4,0.5-0.5c0.2-0.1,0.5-0.2,0.8-0.2c0.6,0,1,0.2,1.2,0.7
				c0.1,0.2,0.1,0.4,0.2,0.6s0.1,0.5,0.1,0.9v2.7c0,0.5,0,0.9,0,1.1c0,0.2-0.1,0.4-0.2,0.6c-0.1,0.2-0.3,0.3-0.5,0.5
				s-0.5,0.2-0.8,0.2c-0.3,0-0.5-0.1-0.7-0.2c-0.2-0.1-0.4-0.3-0.6-0.5h0v3.5h-1.4V228.4z M221.4,230.7c0-0.3-0.1-0.5-0.2-0.7
				c-0.1-0.2-0.3-0.3-0.5-0.3c-0.2,0-0.4,0.1-0.5,0.2s-0.2,0.4-0.2,0.6v2.8c0,0.2,0.1,0.4,0.2,0.6c0.1,0.1,0.3,0.2,0.5,0.2
				c0.3,0,0.5-0.1,0.6-0.3c0.1-0.2,0.1-0.4,0.1-0.6V230.7z"/>
			<path fill="#0460A7" d="M224,225.5h1.4v3.6h0c0.1-0.2,0.3-0.4,0.5-0.6s0.5-0.2,0.8-0.2c0.2,0,0.4,0,0.5,0.1s0.3,0.2,0.5,0.3
				c0.1,0.1,0.3,0.3,0.3,0.5c0.1,0.2,0.1,0.5,0.1,0.8v5.4h-1.4v-4.9c0-0.3-0.1-0.5-0.2-0.6c-0.1-0.1-0.3-0.2-0.5-0.2
				c-0.3,0-0.5,0.1-0.6,0.3s-0.2,0.4-0.2,0.7v4.8H224V225.5z"/>
			<path fill="#0460A7" d="M230.8,232.5v1c0,0.2,0.1,0.4,0.2,0.5c0.1,0.1,0.3,0.2,0.5,0.2c0.3,0,0.5-0.1,0.5-0.2
				c0.1-0.2,0.1-0.3,0.2-0.5h1.4c0,0.3,0,0.6-0.1,0.8c-0.1,0.3-0.2,0.5-0.4,0.7c-0.2,0.2-0.4,0.3-0.7,0.5c-0.3,0.1-0.6,0.2-0.9,0.2
				c-0.4,0-0.8-0.1-1.1-0.3c-0.3-0.2-0.6-0.4-0.7-0.7c-0.1-0.2-0.2-0.4-0.2-0.6c0-0.2-0.1-0.5-0.1-0.8v-2.3c0-0.3,0-0.6,0.1-0.8
				c0-0.2,0.1-0.5,0.2-0.6c0.2-0.3,0.4-0.6,0.7-0.7c0.3-0.2,0.7-0.3,1.1-0.3c0.3,0,0.6,0.1,0.9,0.2c0.3,0.1,0.5,0.3,0.7,0.5
				c0.2,0.2,0.3,0.4,0.4,0.7c0.1,0.3,0.1,0.6,0.1,0.9v2H230.8z M230.8,231.4h1.4v-0.8c0-0.3-0.1-0.5-0.2-0.6
				c-0.1-0.1-0.3-0.2-0.5-0.2s-0.4,0.1-0.5,0.2c-0.1,0.1-0.2,0.3-0.2,0.6V231.4z"/>
			<path fill="#0460A7" d="M234.6,228.4h1.4v0.7h0c0.1-0.2,0.3-0.4,0.5-0.6s0.5-0.2,0.8-0.2c0.2,0,0.4,0,0.5,0.1s0.3,0.2,0.5,0.3
				c0.1,0.1,0.3,0.3,0.3,0.5c0.1,0.2,0.1,0.5,0.1,0.8v5.4h-1.4v-4.9c0-0.3-0.1-0.5-0.2-0.6c-0.1-0.1-0.3-0.2-0.5-0.2
				c-0.3,0-0.5,0.1-0.6,0.3s-0.2,0.4-0.2,0.7v4.8h-1.4V228.4z"/>
			<path fill="#0460A7" d="M247.3,233.3c0,0.3-0.1,0.6-0.2,0.9c-0.1,0.3-0.3,0.5-0.5,0.7s-0.4,0.4-0.7,0.5c-0.3,0.1-0.6,0.2-0.9,0.2
				c-0.3,0-0.5,0-0.8-0.1c-0.3-0.1-0.5-0.2-0.8-0.4c-0.2-0.2-0.4-0.4-0.6-0.7s-0.2-0.7-0.2-1.1v-5.5c0-0.3,0.1-0.6,0.2-0.9
				s0.3-0.5,0.5-0.7c0.2-0.2,0.5-0.4,0.7-0.5c0.3-0.1,0.6-0.2,0.9-0.2c0.3,0,0.6,0.1,0.9,0.2c0.3,0.1,0.5,0.3,0.7,0.5
				s0.4,0.5,0.5,0.8c0.1,0.3,0.2,0.6,0.2,1v0.6h-1.4v-0.5c0-0.3-0.1-0.5-0.2-0.7c-0.2-0.2-0.4-0.3-0.6-0.3c-0.4,0-0.6,0.1-0.7,0.3
				c-0.1,0.2-0.2,0.5-0.2,0.8v5.1c0,0.3,0.1,0.5,0.2,0.7c0.1,0.2,0.4,0.3,0.7,0.3c0.1,0,0.2,0,0.3,0c0.1,0,0.2-0.1,0.3-0.2
				c0.1-0.1,0.2-0.2,0.2-0.3c0.1-0.1,0.1-0.3,0.1-0.5v-0.5h1.4V233.3z"/>
			<path fill="#0460A7" d="M252.7,235.5h-1.4v-0.7h0c-0.1,0.2-0.3,0.4-0.5,0.6s-0.5,0.2-0.8,0.2c-0.2,0-0.4,0-0.5-0.1
				c-0.2-0.1-0.3-0.2-0.5-0.3c-0.1-0.1-0.3-0.3-0.3-0.5c-0.1-0.2-0.1-0.5-0.1-0.8v-5.4h1.4v4.9c0,0.3,0.1,0.5,0.2,0.6
				c0.1,0.1,0.3,0.2,0.5,0.2c0.3,0,0.5-0.1,0.6-0.3c0.1-0.2,0.2-0.4,0.2-0.7v-4.8h1.4V235.5z"/>
			<path fill="#0460A7" d="M253.8,228.4h1.4v0.8c0.3-0.3,0.6-0.5,0.9-0.6s0.6-0.2,1-0.2v1.5c-0.1-0.1-0.3-0.1-0.4-0.1
				s-0.3,0-0.5,0.1c-0.2,0.1-0.3,0.1-0.5,0.3s-0.3,0.3-0.4,0.5c-0.1,0.2-0.1,0.4-0.1,0.7v4.2h-1.4V228.4z"/>
			<path fill="#0460A7" d="M257.7,228.4h1.4v0.8c0.3-0.3,0.6-0.5,0.9-0.6s0.6-0.2,1-0.2v1.5c-0.1-0.1-0.3-0.1-0.4-0.1
				s-0.3,0-0.5,0.1c-0.2,0.1-0.3,0.1-0.5,0.3s-0.3,0.3-0.4,0.5c-0.1,0.2-0.1,0.4-0.1,0.7v4.2h-1.4V228.4z"/>
			<path fill="#0460A7" d="M262.8,228.4l1,4.4h0l1-4.4h1.5l-2,8.3c-0.1,0.3-0.2,0.6-0.3,0.8c-0.1,0.2-0.3,0.4-0.5,0.5
				c-0.2,0.1-0.4,0.2-0.6,0.3c-0.2,0.1-0.4,0.1-0.6,0.1h-0.4V237h0.3c0.1,0,0.3,0,0.4-0.1s0.2-0.1,0.3-0.2c0.1-0.1,0.2-0.3,0.2-0.6
				s0.1-0.6,0.2-1l-1.9-6.8H262.8z"/>
		</g>
	</g>
	<g>
		<path fill="#0460A7" d="M210.8,54.5h-1.5l-1.2-7.4h0l-1.2,7.4h-1.5l-1.7-11.4h1.7l0.8,7.2h0l1.3-7.2h1.2l1.3,7.4h0l0.8-7.4h1.7
			L210.8,54.5z"/>
		<path fill="#0460A7" d="M214.6,51v1.1c0,0.3,0.1,0.5,0.2,0.6c0.1,0.1,0.3,0.2,0.6,0.2c0.3,0,0.5-0.1,0.6-0.3
			c0.1-0.2,0.2-0.4,0.2-0.5h1.6c0,0.3-0.1,0.7-0.2,1c-0.1,0.3-0.3,0.6-0.5,0.8c-0.2,0.2-0.5,0.4-0.8,0.5c-0.3,0.1-0.6,0.2-1,0.2
			c-0.5,0-0.9-0.1-1.3-0.3c-0.4-0.2-0.6-0.5-0.8-0.8c-0.1-0.2-0.2-0.5-0.2-0.7c0-0.3-0.1-0.6-0.1-0.9v-2.7c0-0.3,0-0.6,0.1-0.9
			c0-0.3,0.1-0.5,0.2-0.7c0.2-0.4,0.5-0.6,0.8-0.8c0.4-0.2,0.8-0.3,1.3-0.3c0.4,0,0.7,0.1,1,0.2c0.3,0.1,0.6,0.3,0.8,0.5
			s0.4,0.5,0.5,0.8c0.1,0.3,0.2,0.6,0.2,1V51H214.6z M214.6,49.7h1.6v-0.9c0-0.3-0.1-0.5-0.2-0.7c-0.1-0.2-0.3-0.2-0.6-0.2
			s-0.4,0.1-0.6,0.2c-0.1,0.2-0.2,0.4-0.2,0.7V49.7z"/>
		<path fill="#0460A7" d="M222,48.6c0-0.3-0.1-0.5-0.3-0.6c-0.2-0.1-0.4-0.2-0.6-0.2c-0.3,0-0.5,0.1-0.6,0.2s-0.2,0.4-0.2,0.6
			c0,0.1,0,0.3,0.1,0.4c0.1,0.1,0.3,0.3,0.6,0.4l1,0.4c0.6,0.2,1,0.6,1.3,1c0.2,0.4,0.3,0.8,0.3,1.3c0,0.3-0.1,0.7-0.2,1
			c-0.1,0.3-0.3,0.6-0.5,0.8c-0.2,0.2-0.5,0.4-0.8,0.5c-0.3,0.1-0.6,0.2-1,0.2c-0.3,0-0.6-0.1-0.9-0.2s-0.5-0.3-0.8-0.5
			s-0.4-0.5-0.5-0.8c-0.1-0.3-0.2-0.7-0.2-1.1h1.5c0,0.2,0.1,0.4,0.2,0.6c0.1,0.2,0.3,0.3,0.6,0.3c0.2,0,0.4-0.1,0.6-0.2
			s0.3-0.4,0.3-0.6c0-0.2-0.1-0.4-0.2-0.6s-0.3-0.3-0.6-0.4l-0.8-0.3c-0.5-0.2-0.9-0.5-1.2-0.9c-0.3-0.4-0.4-0.8-0.4-1.4
			c0-0.3,0.1-0.7,0.2-1s0.3-0.5,0.5-0.8s0.5-0.4,0.8-0.5c0.3-0.1,0.6-0.2,0.9-0.2c0.3,0,0.6,0.1,0.9,0.2c0.3,0.1,0.5,0.3,0.7,0.5
			c0.2,0.2,0.4,0.5,0.5,0.8c0.1,0.3,0.2,0.6,0.2,0.9H222z"/>
		<path fill="#0460A7" d="M224.7,43.9h1.6v2.5h1v1.3h-1v4.5c0,0.2,0,0.3,0.1,0.4c0,0.1,0.1,0.2,0.2,0.2s0.2,0.1,0.3,0.1s0.3,0,0.5,0
			v1.5h-0.7c-0.4,0-0.7-0.1-0.9-0.2c-0.3-0.1-0.5-0.3-0.6-0.4c-0.1-0.2-0.3-0.4-0.3-0.6c-0.1-0.2-0.1-0.5-0.1-0.7v-4.9h-0.8v-1.3
			h0.8V43.9z"/>
		<path fill="#0460A7" d="M229.4,51v1.1c0,0.3,0.1,0.5,0.2,0.6c0.1,0.1,0.3,0.2,0.6,0.2c0.3,0,0.5-0.1,0.6-0.3
			c0.1-0.2,0.2-0.4,0.2-0.5h1.6c0,0.3-0.1,0.7-0.2,1c-0.1,0.3-0.3,0.6-0.5,0.8c-0.2,0.2-0.5,0.4-0.8,0.5c-0.3,0.1-0.6,0.2-1,0.2
			c-0.5,0-0.9-0.1-1.3-0.3c-0.4-0.2-0.6-0.5-0.8-0.8c-0.1-0.2-0.2-0.5-0.2-0.7c0-0.3-0.1-0.6-0.1-0.9v-2.7c0-0.3,0-0.6,0.1-0.9
			c0-0.3,0.1-0.5,0.2-0.7c0.2-0.4,0.5-0.6,0.8-0.8c0.4-0.2,0.8-0.3,1.3-0.3c0.4,0,0.7,0.1,1,0.2c0.3,0.1,0.6,0.3,0.8,0.5
			s0.4,0.5,0.5,0.8c0.1,0.3,0.2,0.6,0.2,1V51H229.4z M229.4,49.7h1.6v-0.9c0-0.3-0.1-0.5-0.2-0.7c-0.1-0.2-0.3-0.2-0.6-0.2
			s-0.4,0.1-0.6,0.2c-0.1,0.2-0.2,0.4-0.2,0.7V49.7z"/>
		<path fill="#0460A7" d="M233.9,46.4h1.6v0.9c0.3-0.3,0.7-0.5,1-0.7c0.3-0.2,0.7-0.3,1.2-0.3V48c-0.2-0.1-0.3-0.1-0.5-0.1
			s-0.4,0-0.6,0.1s-0.4,0.2-0.5,0.3c-0.2,0.1-0.3,0.3-0.4,0.5s-0.2,0.5-0.2,0.8v4.8h-1.6V46.4z"/>
		<path fill="#0460A7" d="M238.3,46.4h1.6v0.8h0c0.2-0.3,0.4-0.5,0.6-0.6s0.5-0.2,0.9-0.2c0.2,0,0.4,0,0.6,0.1
			c0.2,0.1,0.4,0.2,0.5,0.3c0.2,0.2,0.3,0.4,0.4,0.6c0.1,0.3,0.1,0.6,0.1,0.9v6.2h-1.6v-5.6c0-0.3-0.1-0.5-0.2-0.7
			c-0.1-0.2-0.3-0.3-0.6-0.3c-0.3,0-0.5,0.1-0.6,0.3c-0.1,0.2-0.2,0.5-0.2,0.8v5.5h-1.6V46.4z"/>
		<path fill="#0460A7" d="M252.8,51.9c0,0.4-0.1,0.7-0.2,1c-0.1,0.3-0.3,0.6-0.6,0.8c-0.2,0.2-0.5,0.4-0.8,0.6s-0.7,0.2-1,0.2
			c-0.3,0-0.6,0-0.9-0.1c-0.3-0.1-0.6-0.2-0.9-0.4s-0.5-0.5-0.6-0.8s-0.2-0.8-0.2-1.3v-6.3c0-0.4,0.1-0.7,0.2-1
			c0.1-0.3,0.3-0.6,0.5-0.8c0.2-0.2,0.5-0.4,0.8-0.6c0.3-0.1,0.7-0.2,1.1-0.2c0.4,0,0.7,0.1,1,0.2c0.3,0.1,0.6,0.3,0.8,0.6
			c0.2,0.2,0.4,0.5,0.6,0.9c0.1,0.3,0.2,0.7,0.2,1.1v0.6h-1.6v-0.5c0-0.3-0.1-0.6-0.3-0.8c-0.2-0.2-0.4-0.4-0.7-0.4
			c-0.4,0-0.7,0.1-0.8,0.4s-0.2,0.6-0.2,1v5.8c0,0.3,0.1,0.6,0.2,0.8c0.1,0.2,0.4,0.3,0.8,0.3c0.1,0,0.2,0,0.3-0.1
			c0.1,0,0.2-0.1,0.3-0.2s0.2-0.2,0.2-0.4c0.1-0.1,0.1-0.3,0.1-0.6v-0.6h1.6V51.9z"/>
		<path fill="#0460A7" d="M253.9,49.1c0-0.3,0-0.6,0.1-0.9c0-0.3,0.1-0.5,0.2-0.7c0.2-0.4,0.5-0.6,0.8-0.8c0.4-0.2,0.8-0.3,1.3-0.3
			s0.9,0.1,1.3,0.3c0.4,0.2,0.6,0.5,0.8,0.8c0.1,0.2,0.2,0.5,0.2,0.7c0,0.3,0.1,0.6,0.1,0.9v2.7c0,0.3,0,0.6-0.1,0.9
			c0,0.3-0.1,0.5-0.2,0.7c-0.2,0.4-0.5,0.6-0.8,0.8c-0.4,0.2-0.8,0.3-1.3,0.3s-0.9-0.1-1.3-0.3c-0.4-0.2-0.6-0.5-0.8-0.8
			c-0.1-0.2-0.2-0.5-0.2-0.7c0-0.3-0.1-0.6-0.1-0.9V49.1z M255.5,52c0,0.3,0.1,0.5,0.2,0.7c0.1,0.2,0.3,0.2,0.6,0.2s0.4-0.1,0.6-0.2
			c0.1-0.2,0.2-0.4,0.2-0.7v-3.2c0-0.3-0.1-0.5-0.2-0.7c-0.1-0.2-0.3-0.2-0.6-0.2s-0.4,0.1-0.6,0.2c-0.1,0.2-0.2,0.4-0.2,0.7V52z"/>
		<path fill="#0460A7" d="M259.9,46.4h1.6v0.8h0c0.2-0.3,0.4-0.5,0.6-0.6s0.5-0.2,0.9-0.2c0.2,0,0.4,0,0.6,0.1
			c0.2,0.1,0.4,0.2,0.5,0.3c0.2,0.2,0.3,0.4,0.4,0.6c0.1,0.3,0.1,0.6,0.1,0.9v6.2h-1.6v-5.6c0-0.3-0.1-0.5-0.2-0.7
			c-0.1-0.2-0.3-0.3-0.6-0.3c-0.3,0-0.5,0.1-0.6,0.3c-0.1,0.2-0.2,0.5-0.2,0.8v5.5h-1.6V46.4z"/>
		<path fill="#0460A7" d="M266.4,47.6h-0.8v-1.3h0.8v-1.1c0-0.4,0.1-0.7,0.2-1s0.3-0.5,0.5-0.7c0.2-0.2,0.4-0.3,0.7-0.4
			c0.2-0.1,0.5-0.1,0.8-0.1h0.8v1.5h-0.7c-0.3,0-0.5,0.2-0.5,0.6v1.2h1.2v1.3H268v6.8h-1.6V47.6z"/>
		<path fill="#0460A7" d="M271.2,51v1.1c0,0.3,0.1,0.5,0.2,0.6c0.1,0.1,0.3,0.2,0.6,0.2c0.3,0,0.5-0.1,0.6-0.3
			c0.1-0.2,0.2-0.4,0.2-0.5h1.6c0,0.3-0.1,0.7-0.2,1c-0.1,0.3-0.3,0.6-0.5,0.8c-0.2,0.2-0.5,0.4-0.8,0.5c-0.3,0.1-0.6,0.2-1,0.2
			c-0.5,0-0.9-0.1-1.3-0.3c-0.4-0.2-0.6-0.5-0.8-0.8c-0.1-0.2-0.2-0.5-0.2-0.7c0-0.3-0.1-0.6-0.1-0.9v-2.7c0-0.3,0-0.6,0.1-0.9
			c0-0.3,0.1-0.5,0.2-0.7c0.2-0.4,0.5-0.6,0.8-0.8c0.4-0.2,0.8-0.3,1.3-0.3c0.4,0,0.7,0.1,1,0.2c0.3,0.1,0.6,0.3,0.8,0.5
			s0.4,0.5,0.5,0.8c0.1,0.3,0.2,0.6,0.2,1V51H271.2z M271.2,49.7h1.6v-0.9c0-0.3-0.1-0.5-0.2-0.7c-0.1-0.2-0.3-0.2-0.6-0.2
			s-0.4,0.1-0.6,0.2c-0.1,0.2-0.2,0.4-0.2,0.7V49.7z"/>
		<path fill="#0460A7" d="M275.6,46.4h1.6v0.9c0.3-0.3,0.7-0.5,1-0.7c0.3-0.2,0.7-0.3,1.2-0.3V48c-0.2-0.1-0.3-0.1-0.5-0.1
			s-0.4,0-0.6,0.1s-0.4,0.2-0.5,0.3c-0.2,0.1-0.3,0.3-0.4,0.5s-0.2,0.5-0.2,0.8v4.8h-1.6V46.4z"/>
		<path fill="#0460A7" d="M281.6,51v1.1c0,0.3,0.1,0.5,0.2,0.6c0.1,0.1,0.3,0.2,0.6,0.2c0.3,0,0.5-0.1,0.6-0.3
			c0.1-0.2,0.2-0.4,0.2-0.5h1.6c0,0.3-0.1,0.7-0.2,1c-0.1,0.3-0.3,0.6-0.5,0.8c-0.2,0.2-0.5,0.4-0.8,0.5c-0.3,0.1-0.6,0.2-1,0.2
			c-0.5,0-0.9-0.1-1.3-0.3c-0.4-0.2-0.6-0.5-0.8-0.8c-0.1-0.2-0.2-0.5-0.2-0.7c0-0.3-0.1-0.6-0.1-0.9v-2.7c0-0.3,0-0.6,0.1-0.9
			c0-0.3,0.1-0.5,0.2-0.7c0.2-0.4,0.5-0.6,0.8-0.8c0.4-0.2,0.8-0.3,1.3-0.3c0.4,0,0.7,0.1,1,0.2c0.3,0.1,0.6,0.3,0.8,0.5
			s0.4,0.5,0.5,0.8c0.1,0.3,0.2,0.6,0.2,1V51H281.6z M281.6,49.7h1.6v-0.9c0-0.3-0.1-0.5-0.2-0.7c-0.1-0.2-0.3-0.2-0.6-0.2
			s-0.4,0.1-0.6,0.2c-0.1,0.2-0.2,0.4-0.2,0.7V49.7z"/>
		<path fill="#0460A7" d="M286,46.4h1.6v0.8h0c0.2-0.3,0.4-0.5,0.6-0.6s0.5-0.2,0.9-0.2c0.2,0,0.4,0,0.6,0.1
			c0.2,0.1,0.4,0.2,0.5,0.3c0.2,0.2,0.3,0.4,0.4,0.6c0.1,0.3,0.1,0.6,0.1,0.9v6.2h-1.6v-5.6c0-0.3-0.1-0.5-0.2-0.7
			c-0.1-0.2-0.3-0.3-0.6-0.3c-0.3,0-0.5,0.1-0.6,0.3c-0.1,0.2-0.2,0.5-0.2,0.8v5.5H286V46.4z"/>
		<path fill="#0460A7" d="M294,52.1c0,0.3,0.1,0.5,0.2,0.6c0.1,0.1,0.3,0.2,0.6,0.2c0.3,0,0.5-0.1,0.6-0.3c0.1-0.2,0.2-0.4,0.2-0.5
			h1.6c0,0.3-0.1,0.7-0.2,1c-0.1,0.3-0.3,0.6-0.5,0.8c-0.2,0.2-0.5,0.4-0.8,0.5c-0.3,0.1-0.6,0.2-1,0.2c-0.5,0-0.9-0.1-1.3-0.3
			c-0.4-0.2-0.6-0.5-0.8-0.8c-0.1-0.2-0.2-0.5-0.2-0.7c0-0.3-0.1-0.6-0.1-0.9v-2.7c0-0.3,0-0.6,0.1-0.9c0-0.3,0.1-0.5,0.2-0.7
			c0.2-0.4,0.5-0.6,0.8-0.8c0.4-0.2,0.8-0.3,1.3-0.3c0.4,0,0.7,0.1,1,0.2s0.6,0.3,0.8,0.5s0.4,0.5,0.5,0.8c0.1,0.3,0.2,0.7,0.2,1
			h-1.6c0-0.3-0.1-0.6-0.2-0.7c-0.1-0.2-0.3-0.2-0.6-0.2c-0.2,0-0.4,0.1-0.6,0.2c-0.1,0.2-0.2,0.4-0.2,0.7V52.1z"/>
		<path fill="#0460A7" d="M299.6,51v1.1c0,0.3,0.1,0.5,0.2,0.6c0.1,0.1,0.3,0.2,0.6,0.2c0.3,0,0.5-0.1,0.6-0.3
			c0.1-0.2,0.2-0.4,0.2-0.5h1.6c0,0.3-0.1,0.7-0.2,1c-0.1,0.3-0.3,0.6-0.5,0.8c-0.2,0.2-0.5,0.4-0.8,0.5c-0.3,0.1-0.6,0.2-1,0.2
			c-0.5,0-0.9-0.1-1.3-0.3c-0.4-0.2-0.6-0.5-0.8-0.8c-0.1-0.2-0.2-0.5-0.2-0.7c0-0.3-0.1-0.6-0.1-0.9v-2.7c0-0.3,0-0.6,0.1-0.9
			c0-0.3,0.1-0.5,0.2-0.7c0.2-0.4,0.5-0.6,0.8-0.8c0.4-0.2,0.8-0.3,1.3-0.3c0.4,0,0.7,0.1,1,0.2c0.3,0.1,0.6,0.3,0.8,0.5
			s0.4,0.5,0.5,0.8c0.1,0.3,0.2,0.6,0.2,1V51H299.6z M299.6,49.7h1.6v-0.9c0-0.3-0.1-0.5-0.2-0.7c-0.1-0.2-0.3-0.2-0.6-0.2
			s-0.4,0.1-0.6,0.2c-0.1,0.2-0.2,0.4-0.2,0.7V49.7z"/>
		<path fill="#0460A7" d="M203.3,56.1v-0.8h100.1v0.8H203.3z"/>
	</g>
</g>
</svg>
